<svg xmlns="http://www.w3.org/2000/svg" version="1.1" xmlns:xlink="http://www.w3.org/1999/xlink" xmlns:svgjs="http://svgjs.dev/svgjs" width="1440" height="560" preserveAspectRatio="none" viewBox="0 0 1440 560"><g mask="url(&quot;#SvgjsMask1003&quot;)" fill="none"><rect width="1440" height="560" x="0" y="0" fill="rgba(239, 247, 253, 1)"></rect><path d="M724.26 671.28C896.14 629.42 962.42 168.34 1219.41 165.78 1476.4 163.22 1578.22 389.88 1714.56 395.38" stroke="rgba(113, 171, 232, 0.58)" stroke-width="2"></path><path d="M571.48 582.35C699.66 509.48 632.94 77.29 868.78 73 1104.62 68.71 1306.45 271.88 1463.39 274.6" stroke="rgba(113, 171, 232, 0.58)" stroke-width="2"></path><path d="M816.71 647.78C945.24 617.12 995.2 274.33 1188.64 272.24 1382.08 270.15 1459.17 431.15 1560.57 434.64" stroke="rgba(113, 171, 232, 0.58)" stroke-width="2"></path><path d="M204.29 615.16C330.3 612.74 440.81 447.82 679.81 447.69 918.82 447.56 917.57 517.69 1155.34 517.69 1393.1 517.69 1510.7 447.88 1630.86 447.69" stroke="rgba(113, 171, 232, 0.58)" stroke-width="2"></path><path d="M667.32 667.23C794.7 655.36 853.05 403.05 1096.49 388.56 1339.93 374.07 1408.91 207.63 1525.66 203.76" stroke="rgba(113, 171, 232, 0.58)" stroke-width="2"></path></g><defs><mask id="SvgjsMask1003"><rect width="1440" height="560" fill="#ffffff"></rect></mask></defs></svg>