<svg xmlns="http://www.w3.org/2000/svg" version="1.1" xmlns:xlink="http://www.w3.org/1999/xlink" xmlns:svgjs="http://svgjs.dev/svgjs" width="1440" height="560" preserveAspectRatio="none" viewBox="0 0 1440 560"><g mask="url(&quot;#SvgjsMask1052&quot;)" fill="none"><rect width="1440" height="560" x="0" y="0" fill="rgba(239, 247, 253, 1)"></rect><path d="M-49.6 514.04L-49.6 514.04" stroke="rgba(200, 222, 237, 1)" stroke-width="1.5"></path><path d="M-49.6 514.04L76.71 553.94" stroke="rgba(200, 222, 237, 1)" stroke-width="1.5"></path><path d="M-49.6 514.04L83.75 396.98" stroke="rgba(200, 222, 237, 1)" stroke-width="1.5"></path><path d="M-49.6 514.04L-77.24 690.67" stroke="rgba(200, 222, 237, 1)" stroke-width="1.5"></path><path d="M-49.6 514.04L45.91 668.1" stroke="rgba(200, 222, 237, 1)" stroke-width="1.5"></path><path d="M-77.24 690.67L-77.24 690.67" stroke="rgba(200, 222, 237, 1)" stroke-width="1.5"></path><path d="M-77.24 690.67L45.91 668.1" stroke="rgba(200, 222, 237, 1)" stroke-width="1.5"></path><path d="M-77.24 690.67L76.71 553.94" stroke="rgba(200, 222, 237, 1)" stroke-width="1.5"></path><path d="M-77.24 690.67L218.64 689.03" stroke="rgba(200, 222, 237, 1)" stroke-width="1.5"></path><path d="M83.75 396.98L83.75 396.98" stroke="rgba(200, 222, 237, 1)" stroke-width="1.5"></path><path d="M83.75 396.98L218.92 357.01" stroke="rgba(200, 222, 237, 1)" stroke-width="1.5"></path><path d="M83.75 396.98L76.71 553.94" stroke="rgba(200, 222, 237, 1)" stroke-width="1.5"></path><path d="M76.71 553.94L76.71 553.94" stroke="rgba(200, 222, 237, 1)" stroke-width="1.5"></path><path d="M76.71 553.94L45.91 668.1" stroke="rgba(200, 222, 237, 1)" stroke-width="1.5"></path><path d="M76.71 553.94L253.5 556.73" stroke="rgba(200, 222, 237, 1)" stroke-width="1.5"></path><path d="M76.71 553.94L218.64 689.03" stroke="rgba(200, 222, 237, 1)" stroke-width="1.5"></path><path d="M45.91 668.1L45.91 668.1" stroke="rgba(200, 222, 237, 1)" stroke-width="1.5"></path><path d="M45.91 668.1L218.64 689.03" stroke="rgba(200, 222, 237, 1)" stroke-width="1.5"></path><path d="M218.92 357.01L218.92 357.01" stroke="rgba(200, 222, 237, 1)" stroke-width="1.5"></path><path d="M218.92 357.01L351.69 338.88" stroke="rgba(200, 222, 237, 1)" stroke-width="1.5"></path><path d="M218.92 357.01L253.5 556.73" stroke="rgba(200, 222, 237, 1)" stroke-width="1.5"></path><path d="M218.92 357.01L347.64 541.76" stroke="rgba(200, 222, 237, 1)" stroke-width="1.5"></path><path d="M218.92 357.01L76.71 553.94" stroke="rgba(200, 222, 237, 1)" stroke-width="1.5"></path><path d="M218.92 357.01L506.3 397.39" stroke="rgba(200, 222, 237, 1)" stroke-width="1.5"></path><path d="M253.5 556.73L253.5 556.73" stroke="rgba(200, 222, 237, 1)" stroke-width="1.5"></path><path d="M253.5 556.73L347.64 541.76" stroke="rgba(200, 222, 237, 1)" stroke-width="1.5"></path><path d="M253.5 556.73L218.64 689.03" stroke="rgba(200, 222, 237, 1)" stroke-width="1.5"></path><path d="M253.5 556.73L410.48 663.77" stroke="rgba(200, 222, 237, 1)" stroke-width="1.5"></path><path d="M218.64 689.03L218.64 689.03" stroke="rgba(200, 222, 237, 1)" stroke-width="1.5"></path><path d="M351.69 338.88L351.69 338.88" stroke="rgba(200, 222, 237, 1)" stroke-width="1.5"></path><path d="M351.69 338.88L506.3 397.39" stroke="rgba(200, 222, 237, 1)" stroke-width="1.5"></path><path d="M351.69 338.88L347.64 541.76" stroke="rgba(200, 222, 237, 1)" stroke-width="1.5"></path><path d="M347.64 541.76L347.64 541.76" stroke="rgba(200, 222, 237, 1)" stroke-width="1.5"></path><path d="M347.64 541.76L410.48 663.77" stroke="rgba(200, 222, 237, 1)" stroke-width="1.5"></path><path d="M347.64 541.76L525.28 538.01" stroke="rgba(200, 222, 237, 1)" stroke-width="1.5"></path><path d="M347.64 541.76L218.64 689.03" stroke="rgba(200, 222, 237, 1)" stroke-width="1.5"></path><path d="M410.48 663.77L410.48 663.77" stroke="rgba(200, 222, 237, 1)" stroke-width="1.5"></path><path d="M410.48 663.77L507.2 659.63" stroke="rgba(200, 222, 237, 1)" stroke-width="1.5"></path><path d="M506.3 397.39L506.3 397.39" stroke="rgba(200, 222, 237, 1)" stroke-width="1.5"></path><path d="M506.3 397.39L525.28 538.01" stroke="rgba(200, 222, 237, 1)" stroke-width="1.5"></path><path d="M525.28 538.01L525.28 538.01" stroke="rgba(200, 222, 237, 1)" stroke-width="1.5"></path><path d="M525.28 538.01L507.2 659.63" stroke="rgba(200, 222, 237, 1)" stroke-width="1.5"></path><path d="M525.28 538.01L688.53 552.58" stroke="rgba(200, 222, 237, 1)" stroke-width="1.5"></path><path d="M507.2 659.63L507.2 659.63" stroke="rgba(200, 222, 237, 1)" stroke-width="1.5"></path><path d="M507.2 659.63L680.86 657.13" stroke="rgba(200, 222, 237, 1)" stroke-width="1.5"></path><path d="M507.2 659.63L347.64 541.76" stroke="rgba(200, 222, 237, 1)" stroke-width="1.5"></path><path d="M696.02 256.51L696.02 256.51" stroke="rgba(200, 222, 237, 1)" stroke-width="1.5"></path><path d="M696.02 256.51L686.44 375.02" stroke="rgba(200, 222, 237, 1)" stroke-width="1.5"></path><path d="M696.02 256.51L829.09 202.22" stroke="rgba(200, 222, 237, 1)" stroke-width="1.5"></path><path d="M696.02 256.51L843.73 355.12" stroke="rgba(200, 222, 237, 1)" stroke-width="1.5"></path><path d="M696.02 256.51L843.31 94.68" stroke="rgba(200, 222, 237, 1)" stroke-width="1.5"></path><path d="M696.02 256.51L506.3 397.39" stroke="rgba(200, 222, 237, 1)" stroke-width="1.5"></path><path d="M686.44 375.02L686.44 375.02" stroke="rgba(200, 222, 237, 1)" stroke-width="1.5"></path><path d="M686.44 375.02L843.73 355.12" stroke="rgba(200, 222, 237, 1)" stroke-width="1.5"></path><path d="M686.44 375.02L802.56 488.38" stroke="rgba(200, 222, 237, 1)" stroke-width="1.5"></path><path d="M686.44 375.02L688.53 552.58" stroke="rgba(200, 222, 237, 1)" stroke-width="1.5"></path><path d="M686.44 375.02L506.3 397.39" stroke="rgba(200, 222, 237, 1)" stroke-width="1.5"></path><path d="M688.53 552.58L688.53 552.58" stroke="rgba(200, 222, 237, 1)" stroke-width="1.5"></path><path d="M688.53 552.58L680.86 657.13" stroke="rgba(200, 222, 237, 1)" stroke-width="1.5"></path><path d="M688.53 552.58L802.56 488.38" stroke="rgba(200, 222, 237, 1)" stroke-width="1.5"></path><path d="M680.86 657.13L680.86 657.13" stroke="rgba(200, 222, 237, 1)" stroke-width="1.5"></path><path d="M680.86 657.13L802.57 675.62" stroke="rgba(200, 222, 237, 1)" stroke-width="1.5"></path><path d="M680.86 657.13L525.28 538.01" stroke="rgba(200, 222, 237, 1)" stroke-width="1.5"></path><path d="M843.31 94.68L843.31 94.68" stroke="rgba(200, 222, 237, 1)" stroke-width="1.5"></path><path d="M843.31 94.68L829.09 202.22" stroke="rgba(200, 222, 237, 1)" stroke-width="1.5"></path><path d="M843.31 94.68L993.42 243.01" stroke="rgba(200, 222, 237, 1)" stroke-width="1.5"></path><path d="M843.31 94.68L1010.67 -60.69" stroke="rgba(200, 222, 237, 1)" stroke-width="1.5"></path><path d="M843.31 94.68L843.73 355.12" stroke="rgba(200, 222, 237, 1)" stroke-width="1.5"></path><path d="M843.31 94.68L1111.7 197.84" stroke="rgba(200, 222, 237, 1)" stroke-width="1.5"></path><path d="M829.09 202.22L829.09 202.22" stroke="rgba(200, 222, 237, 1)" stroke-width="1.5"></path><path d="M829.09 202.22L843.73 355.12" stroke="rgba(200, 222, 237, 1)" stroke-width="1.5"></path><path d="M829.09 202.22L993.42 243.01" stroke="rgba(200, 222, 237, 1)" stroke-width="1.5"></path><path d="M829.09 202.22L686.44 375.02" stroke="rgba(200, 222, 237, 1)" stroke-width="1.5"></path><path d="M829.09 202.22L983.93 385.53" stroke="rgba(200, 222, 237, 1)" stroke-width="1.5"></path><path d="M843.73 355.12L843.73 355.12" stroke="rgba(200, 222, 237, 1)" stroke-width="1.5"></path><path d="M843.73 355.12L802.56 488.38" stroke="rgba(200, 222, 237, 1)" stroke-width="1.5"></path><path d="M843.73 355.12L983.93 385.53" stroke="rgba(200, 222, 237, 1)" stroke-width="1.5"></path><path d="M802.56 488.38L802.56 488.38" stroke="rgba(200, 222, 237, 1)" stroke-width="1.5"></path><path d="M802.56 488.38L939.66 512.53" stroke="rgba(200, 222, 237, 1)" stroke-width="1.5"></path><path d="M802.57 675.62L802.57 675.62" stroke="rgba(200, 222, 237, 1)" stroke-width="1.5"></path><path d="M802.57 675.62L948.02 646.46" stroke="rgba(200, 222, 237, 1)" stroke-width="1.5"></path><path d="M802.57 675.62L688.53 552.58" stroke="rgba(200, 222, 237, 1)" stroke-width="1.5"></path><path d="M1010.67 -60.69L1010.67 -60.69" stroke="rgba(200, 222, 237, 1)" stroke-width="1.5"></path><path d="M1010.67 -60.69L1102.24 -96.6" stroke="rgba(200, 222, 237, 1)" stroke-width="1.5"></path><path d="M1010.67 -60.69L1139.16 79.43" stroke="rgba(200, 222, 237, 1)" stroke-width="1.5"></path><path d="M1010.67 -60.69L1241.21 -86.82" stroke="rgba(200, 222, 237, 1)" stroke-width="1.5"></path><path d="M1010.67 -60.69L1111.7 197.84" stroke="rgba(200, 222, 237, 1)" stroke-width="1.5"></path><path d="M1010.67 -60.69L1279.32 41.98" stroke="rgba(200, 222, 237, 1)" stroke-width="1.5"></path><path d="M993.42 243.01L993.42 243.01" stroke="rgba(200, 222, 237, 1)" stroke-width="1.5"></path><path d="M993.42 243.01L1111.7 197.84" stroke="rgba(200, 222, 237, 1)" stroke-width="1.5"></path><path d="M993.42 243.01L983.93 385.53" stroke="rgba(200, 222, 237, 1)" stroke-width="1.5"></path><path d="M983.93 385.53L983.93 385.53" stroke="rgba(200, 222, 237, 1)" stroke-width="1.5"></path><path d="M983.93 385.53L939.66 512.53" stroke="rgba(200, 222, 237, 1)" stroke-width="1.5"></path><path d="M983.93 385.53L1144.88 347.68" stroke="rgba(200, 222, 237, 1)" stroke-width="1.5"></path><path d="M983.93 385.53L1131.5 493.31" stroke="rgba(200, 222, 237, 1)" stroke-width="1.5"></path><path d="M983.93 385.53L802.56 488.38" stroke="rgba(200, 222, 237, 1)" stroke-width="1.5"></path><path d="M939.66 512.53L939.66 512.53" stroke="rgba(200, 222, 237, 1)" stroke-width="1.5"></path><path d="M939.66 512.53L948.02 646.46" stroke="rgba(200, 222, 237, 1)" stroke-width="1.5"></path><path d="M939.66 512.53L843.73 355.12" stroke="rgba(200, 222, 237, 1)" stroke-width="1.5"></path><path d="M948.02 646.46L948.02 646.46" stroke="rgba(200, 222, 237, 1)" stroke-width="1.5"></path><path d="M948.02 646.46L1103.82 657.61" stroke="rgba(200, 222, 237, 1)" stroke-width="1.5"></path><path d="M1102.24 -96.6L1102.24 -96.6" stroke="rgba(200, 222, 237, 1)" stroke-width="1.5"></path><path d="M1102.24 -96.6L1241.21 -86.82" stroke="rgba(200, 222, 237, 1)" stroke-width="1.5"></path><path d="M1139.16 79.43L1139.16 79.43" stroke="rgba(200, 222, 237, 1)" stroke-width="1.5"></path><path d="M1139.16 79.43L1111.7 197.84" stroke="rgba(200, 222, 237, 1)" stroke-width="1.5"></path><path d="M1139.16 79.43L1279.32 41.98" stroke="rgba(200, 222, 237, 1)" stroke-width="1.5"></path><path d="M1139.16 79.43L1102.24 -96.6" stroke="rgba(200, 222, 237, 1)" stroke-width="1.5"></path><path d="M1111.7 197.84L1111.7 197.84" stroke="rgba(200, 222, 237, 1)" stroke-width="1.5"></path><path d="M1144.88 347.68L1144.88 347.68" stroke="rgba(200, 222, 237, 1)" stroke-width="1.5"></path><path d="M1144.88 347.68L1258.89 344.12" stroke="rgba(200, 222, 237, 1)" stroke-width="1.5"></path><path d="M1144.88 347.68L1131.5 493.31" stroke="rgba(200, 222, 237, 1)" stroke-width="1.5"></path><path d="M1144.88 347.68L1111.7 197.84" stroke="rgba(200, 222, 237, 1)" stroke-width="1.5"></path><path d="M1131.5 493.31L1131.5 493.31" stroke="rgba(200, 222, 237, 1)" stroke-width="1.5"></path><path d="M1131.5 493.31L1247.66 495.5" stroke="rgba(200, 222, 237, 1)" stroke-width="1.5"></path><path d="M1131.5 493.31L1103.82 657.61" stroke="rgba(200, 222, 237, 1)" stroke-width="1.5"></path><path d="M1103.82 657.61L1103.82 657.61" stroke="rgba(200, 222, 237, 1)" stroke-width="1.5"></path><path d="M1103.82 657.61L1247.66 495.5" stroke="rgba(200, 222, 237, 1)" stroke-width="1.5"></path><path d="M1103.82 657.61L939.66 512.53" stroke="rgba(200, 222, 237, 1)" stroke-width="1.5"></path><path d="M1103.82 657.61L983.93 385.53" stroke="rgba(200, 222, 237, 1)" stroke-width="1.5"></path><path d="M1103.82 657.61L802.57 675.62" stroke="rgba(200, 222, 237, 1)" stroke-width="1.5"></path><path d="M1241.21 -86.82L1241.21 -86.82" stroke="rgba(200, 222, 237, 1)" stroke-width="1.5"></path><path d="M1241.21 -86.82L1279.32 41.98" stroke="rgba(200, 222, 237, 1)" stroke-width="1.5"></path><path d="M1241.21 -86.82L1139.16 79.43" stroke="rgba(200, 222, 237, 1)" stroke-width="1.5"></path><path d="M1241.21 -86.82L1459.8 -52.67" stroke="rgba(200, 222, 237, 1)" stroke-width="1.5"></path><path d="M1279.32 41.98L1279.32 41.98" stroke="rgba(200, 222, 237, 1)" stroke-width="1.5"></path><path d="M1279.32 41.98L1434.2 111.81" stroke="rgba(200, 222, 237, 1)" stroke-width="1.5"></path><path d="M1299.45 252.06L1299.45 252.06" stroke="rgba(200, 222, 237, 1)" stroke-width="1.5"></path><path d="M1299.45 252.06L1258.89 344.12" stroke="rgba(200, 222, 237, 1)" stroke-width="1.5"></path><path d="M1299.45 252.06L1434.54 197.28" stroke="rgba(200, 222, 237, 1)" stroke-width="1.5"></path><path d="M1299.45 252.06L1144.88 347.68" stroke="rgba(200, 222, 237, 1)" stroke-width="1.5"></path><path d="M1299.45 252.06L1434.2 111.81" stroke="rgba(200, 222, 237, 1)" stroke-width="1.5"></path><path d="M1258.89 344.12L1258.89 344.12" stroke="rgba(200, 222, 237, 1)" stroke-width="1.5"></path><path d="M1258.89 344.12L1247.66 495.5" stroke="rgba(200, 222, 237, 1)" stroke-width="1.5"></path><path d="M1247.66 495.5L1247.66 495.5" stroke="rgba(200, 222, 237, 1)" stroke-width="1.5"></path><path d="M1247.66 495.5L1390.42 494.83" stroke="rgba(200, 222, 237, 1)" stroke-width="1.5"></path><path d="M1247.66 495.5L1144.88 347.68" stroke="rgba(200, 222, 237, 1)" stroke-width="1.5"></path><path d="M1247.66 495.5L1455.47 385.18" stroke="rgba(200, 222, 237, 1)" stroke-width="1.5"></path><path d="M1459.8 -52.67L1459.8 -52.67" stroke="rgba(200, 222, 237, 1)" stroke-width="1.5"></path><path d="M1459.8 -52.67L1590.55 -53.89" stroke="rgba(200, 222, 237, 1)" stroke-width="1.5"></path><path d="M1459.8 -52.67L1434.2 111.81" stroke="rgba(200, 222, 237, 1)" stroke-width="1.5"></path><path d="M1459.8 -52.67L1279.32 41.98" stroke="rgba(200, 222, 237, 1)" stroke-width="1.5"></path><path d="M1459.8 -52.67L1434.54 197.28" stroke="rgba(200, 222, 237, 1)" stroke-width="1.5"></path><path d="M1434.2 111.81L1434.2 111.81" stroke="rgba(200, 222, 237, 1)" stroke-width="1.5"></path><path d="M1434.2 111.81L1434.54 197.28" stroke="rgba(200, 222, 237, 1)" stroke-width="1.5"></path><path d="M1434.54 197.28L1434.54 197.28" stroke="rgba(200, 222, 237, 1)" stroke-width="1.5"></path><path d="M1434.54 197.28L1555.74 247.83" stroke="rgba(200, 222, 237, 1)" stroke-width="1.5"></path><path d="M1434.54 197.28L1455.47 385.18" stroke="rgba(200, 222, 237, 1)" stroke-width="1.5"></path><path d="M1455.47 385.18L1455.47 385.18" stroke="rgba(200, 222, 237, 1)" stroke-width="1.5"></path><path d="M1455.47 385.18L1561.34 372" stroke="rgba(200, 222, 237, 1)" stroke-width="1.5"></path><path d="M1455.47 385.18L1390.42 494.83" stroke="rgba(200, 222, 237, 1)" stroke-width="1.5"></path><path d="M1455.47 385.18L1555.74 247.83" stroke="rgba(200, 222, 237, 1)" stroke-width="1.5"></path><path d="M1455.47 385.18L1258.89 344.12" stroke="rgba(200, 222, 237, 1)" stroke-width="1.5"></path><path d="M1455.47 385.18L1299.45 252.06" stroke="rgba(200, 222, 237, 1)" stroke-width="1.5"></path><path d="M1390.42 494.83L1390.42 494.83" stroke="rgba(200, 222, 237, 1)" stroke-width="1.5"></path><path d="M1390.42 494.83L1258.89 344.12" stroke="rgba(200, 222, 237, 1)" stroke-width="1.5"></path><path d="M1390.42 494.83L1590.32 541.83" stroke="rgba(200, 222, 237, 1)" stroke-width="1.5"></path><path d="M1390.42 494.83L1561.34 372" stroke="rgba(200, 222, 237, 1)" stroke-width="1.5"></path><path d="M1403.65 709.55L1403.65 709.55" stroke="rgba(200, 222, 237, 1)" stroke-width="1.5"></path><path d="M1403.65 709.55L1605.82 686.83" stroke="rgba(200, 222, 237, 1)" stroke-width="1.5"></path><path d="M1403.65 709.55L1390.42 494.83" stroke="rgba(200, 222, 237, 1)" stroke-width="1.5"></path><path d="M1403.65 709.55L1590.32 541.83" stroke="rgba(200, 222, 237, 1)" stroke-width="1.5"></path><path d="M1403.65 709.55L1247.66 495.5" stroke="rgba(200, 222, 237, 1)" stroke-width="1.5"></path><path d="M1590.55 -53.89L1590.55 -53.89" stroke="rgba(200, 222, 237, 1)" stroke-width="1.5"></path><path d="M1590.55 -53.89L1434.2 111.81" stroke="rgba(200, 222, 237, 1)" stroke-width="1.5"></path><path d="M1555.74 247.83L1555.74 247.83" stroke="rgba(200, 222, 237, 1)" stroke-width="1.5"></path><path d="M1555.74 247.83L1561.34 372" stroke="rgba(200, 222, 237, 1)" stroke-width="1.5"></path><path d="M1555.74 247.83L1434.2 111.81" stroke="rgba(200, 222, 237, 1)" stroke-width="1.5"></path><path d="M1555.74 247.83L1299.45 252.06" stroke="rgba(200, 222, 237, 1)" stroke-width="1.5"></path><path d="M1555.74 247.83L1590.32 541.83" stroke="rgba(200, 222, 237, 1)" stroke-width="1.5"></path><path d="M1561.34 372L1561.34 372" stroke="rgba(200, 222, 237, 1)" stroke-width="1.5"></path><path d="M1590.32 541.83L1590.32 541.83" stroke="rgba(200, 222, 237, 1)" stroke-width="1.5"></path><path d="M1590.32 541.83L1605.82 686.83" stroke="rgba(200, 222, 237, 1)" stroke-width="1.5"></path><path d="M1590.32 541.83L1561.34 372" stroke="rgba(200, 222, 237, 1)" stroke-width="1.5"></path><path d="M1605.82 686.83L1605.82 686.83" stroke="rgba(200, 222, 237, 1)" stroke-width="1.5"></path><path d="M1605.82 686.83L1390.42 494.83" stroke="rgba(200, 222, 237, 1)" stroke-width="1.5"></path><path d="M1605.82 686.83L1561.34 372" stroke="rgba(200, 222, 237, 1)" stroke-width="1.5"></path><circle r="5" cx="-49.6" cy="514.04" fill="rgba(200, 222, 237, 1)"></circle><circle r="5" cx="-77.24" cy="690.67" fill="rgba(200, 222, 237, 1)"></circle><circle r="5" cx="83.75" cy="396.98" fill="rgba(200, 222, 237, 1)"></circle><circle r="5" cx="76.71" cy="553.94" fill="rgba(200, 222, 237, 1)"></circle><circle r="5" cx="45.91" cy="668.1" fill="rgba(200, 222, 237, 1)"></circle><circle r="5" cx="218.92" cy="357.01" fill="rgba(200, 222, 237, 1)"></circle><circle r="5" cx="253.5" cy="556.73" fill="rgba(200, 222, 237, 1)"></circle><circle r="5" cx="218.64" cy="689.03" fill="rgba(200, 222, 237, 1)"></circle><circle r="5" cx="351.69" cy="338.88" fill="rgba(200, 222, 237, 1)"></circle><circle r="5" cx="347.64" cy="541.76" fill="rgba(200, 222, 237, 1)"></circle><circle r="5" cx="410.48" cy="663.77" fill="rgba(200, 222, 237, 1)"></circle><circle r="5" cx="506.3" cy="397.39" fill="rgba(200, 222, 237, 1)"></circle><circle r="5" cx="525.28" cy="538.01" fill="rgba(200, 222, 237, 1)"></circle><circle r="5" cx="507.2" cy="659.63" fill="rgba(200, 222, 237, 1)"></circle><circle r="5" cx="696.02" cy="256.51" fill="rgba(200, 222, 237, 1)"></circle><circle r="5" cx="686.44" cy="375.02" fill="rgba(200, 222, 237, 1)"></circle><circle r="5" cx="688.53" cy="552.58" fill="rgba(200, 222, 237, 1)"></circle><circle r="5" cx="680.86" cy="657.13" fill="rgba(200, 222, 237, 1)"></circle><circle r="5" cx="843.31" cy="94.68" fill="rgba(200, 222, 237, 1)"></circle><circle r="5" cx="829.09" cy="202.22" fill="rgba(200, 222, 237, 1)"></circle><circle r="5" cx="843.73" cy="355.12" fill="rgba(200, 222, 237, 1)"></circle><circle r="5" cx="802.56" cy="488.38" fill="rgba(200, 222, 237, 1)"></circle><circle r="5" cx="802.57" cy="675.62" fill="rgba(200, 222, 237, 1)"></circle><circle r="5" cx="1010.67" cy="-60.69" fill="rgba(200, 222, 237, 1)"></circle><circle r="5" cx="993.42" cy="243.01" fill="rgba(200, 222, 237, 1)"></circle><circle r="5" cx="983.93" cy="385.53" fill="rgba(200, 222, 237, 1)"></circle><circle r="5" cx="939.66" cy="512.53" fill="rgba(200, 222, 237, 1)"></circle><circle r="5" cx="948.02" cy="646.46" fill="rgba(200, 222, 237, 1)"></circle><circle r="5" cx="1102.24" cy="-96.6" fill="rgba(200, 222, 237, 1)"></circle><circle r="5" cx="1139.16" cy="79.43" fill="rgba(200, 222, 237, 1)"></circle><circle r="5" cx="1111.7" cy="197.84" fill="rgba(200, 222, 237, 1)"></circle><circle r="5" cx="1144.88" cy="347.68" fill="rgba(200, 222, 237, 1)"></circle><circle r="5" cx="1131.5" cy="493.31" fill="rgba(200, 222, 237, 1)"></circle><circle r="5" cx="1103.82" cy="657.61" fill="rgba(200, 222, 237, 1)"></circle><circle r="5" cx="1241.21" cy="-86.82" fill="rgba(200, 222, 237, 1)"></circle><circle r="5" cx="1279.32" cy="41.98" fill="rgba(200, 222, 237, 1)"></circle><circle r="5" cx="1299.45" cy="252.06" fill="rgba(200, 222, 237, 1)"></circle><circle r="5" cx="1258.89" cy="344.12" fill="rgba(200, 222, 237, 1)"></circle><circle r="5" cx="1247.66" cy="495.5" fill="rgba(200, 222, 237, 1)"></circle><circle r="5" cx="1459.8" cy="-52.67" fill="rgba(200, 222, 237, 1)"></circle><circle r="5" cx="1434.2" cy="111.81" fill="rgba(200, 222, 237, 1)"></circle><circle r="5" cx="1434.54" cy="197.28" fill="rgba(200, 222, 237, 1)"></circle><circle r="5" cx="1455.47" cy="385.18" fill="rgba(200, 222, 237, 1)"></circle><circle r="5" cx="1390.42" cy="494.83" fill="rgba(200, 222, 237, 1)"></circle><circle r="5" cx="1403.65" cy="709.55" fill="rgba(200, 222, 237, 1)"></circle><circle r="5" cx="1590.55" cy="-53.89" fill="rgba(200, 222, 237, 1)"></circle><circle r="5" cx="1555.74" cy="247.83" fill="rgba(200, 222, 237, 1)"></circle><circle r="5" cx="1561.34" cy="372" fill="rgba(200, 222, 237, 1)"></circle><circle r="5" cx="1590.32" cy="541.83" fill="rgba(200, 222, 237, 1)"></circle><circle r="5" cx="1605.82" cy="686.83" fill="rgba(200, 222, 237, 1)"></circle><path d="M846.55 495.93L846.55 495.93" stroke="hsl(204, 93.8%, 100%)" stroke-width="1.5"></path><path d="M846.55 495.93L961.73 517.2" stroke="hsl(204, 93.8%, 100%)" stroke-width="1.5"></path><path d="M846.55 495.93L849.47 370.51" stroke="hsl(204, 93.8%, 100%)" stroke-width="1.5"></path><path d="M846.55 495.93L664.35 536.93" stroke="hsl(204, 93.8%, 100%)" stroke-width="1.5"></path><path d="M961.73 517.2L961.73 517.2" stroke="hsl(204, 93.8%, 100%)" stroke-width="1.5"></path><path d="M961.73 517.2L1100.67 499.31" stroke="hsl(204, 93.8%, 100%)" stroke-width="1.5"></path><path d="M961.73 517.2L1002.82 690.48" stroke="hsl(204, 93.8%, 100%)" stroke-width="1.5"></path><path d="M1413.88 79.28L1413.88 79.28" stroke="hsl(204, 93.8%, 100%)" stroke-width="1.5"></path><path d="M1413.88 79.28L1542.38 63.61" stroke="hsl(204, 93.8%, 100%)" stroke-width="1.5"></path><path d="M1413.88 79.28L1411.39 223.24" stroke="hsl(204, 93.8%, 100%)" stroke-width="1.5"></path><path d="M1413.88 79.28L1461.21 -94.15" stroke="hsl(204, 93.8%, 100%)" stroke-width="1.5"></path><path d="M1413.88 79.28L1556.99 198.55" stroke="hsl(204, 93.8%, 100%)" stroke-width="1.5"></path><path d="M1421.43 385.29L1421.43 385.29" stroke="hsl(204, 93.8%, 100%)" stroke-width="1.5"></path><path d="M1421.43 385.29L1411.39 223.24" stroke="hsl(204, 93.8%, 100%)" stroke-width="1.5"></path><path d="M1421.43 385.29L1586.46 398.65" stroke="hsl(204, 93.8%, 100%)" stroke-width="1.5"></path><path d="M1408.05 553.18L1408.05 553.18" stroke="hsl(204, 93.8%, 100%)" stroke-width="1.5"></path><path d="M1408.05 553.18L1565.2 557.88" stroke="hsl(204, 93.8%, 100%)" stroke-width="1.5"></path><path d="M1408.05 553.18L1421.43 385.29" stroke="hsl(204, 93.8%, 100%)" stroke-width="1.5"></path><path d="M1408.05 553.18L1293.86 677.71" stroke="hsl(204, 93.8%, 100%)" stroke-width="1.5"></path><path d="M1408.05 553.18L1562.66 681.66" stroke="hsl(204, 93.8%, 100%)" stroke-width="1.5"></path><path d="M1408.05 553.18L1586.46 398.65" stroke="hsl(204, 93.8%, 100%)" stroke-width="1.5"></path><path d="M-47.82 523.38L-47.82 523.38" stroke="hsl(204, 93.8%, 100%)" stroke-width="1.5"></path><path d="M-47.82 523.38L86.45 498.33" stroke="hsl(204, 93.8%, 100%)" stroke-width="1.5"></path><path d="M-47.82 523.38L-95.58 708.03" stroke="hsl(204, 93.8%, 100%)" stroke-width="1.5"></path><path d="M-47.82 523.38L86.17 707.18" stroke="hsl(204, 93.8%, 100%)" stroke-width="1.5"></path><path d="M-95.58 708.03L-95.58 708.03" stroke="hsl(204, 93.8%, 100%)" stroke-width="1.5"></path><path d="M-95.58 708.03L86.17 707.18" stroke="hsl(204, 93.8%, 100%)" stroke-width="1.5"></path><path d="M-95.58 708.03L86.45 498.33" stroke="hsl(204, 93.8%, 100%)" stroke-width="1.5"></path><path d="M86.45 498.33L86.45 498.33" stroke="hsl(204, 93.8%, 100%)" stroke-width="1.5"></path><path d="M86.45 498.33L232.48 522.12" stroke="hsl(204, 93.8%, 100%)" stroke-width="1.5"></path><path d="M86.45 498.33L86.17 707.18" stroke="hsl(204, 93.8%, 100%)" stroke-width="1.5"></path><path d="M86.45 498.33L188.39 690.42" stroke="hsl(204, 93.8%, 100%)" stroke-width="1.5"></path><path d="M86.45 498.33L345.28 653.37" stroke="hsl(204, 93.8%, 100%)" stroke-width="1.5"></path><path d="M86.17 707.18L86.17 707.18" stroke="hsl(204, 93.8%, 100%)" stroke-width="1.5"></path><path d="M86.17 707.18L188.39 690.42" stroke="hsl(204, 93.8%, 100%)" stroke-width="1.5"></path><path d="M232.48 522.12L232.48 522.12" stroke="hsl(204, 93.8%, 100%)" stroke-width="1.5"></path><path d="M232.48 522.12L401.7 504.01" stroke="hsl(204, 93.8%, 100%)" stroke-width="1.5"></path><path d="M232.48 522.12L345.28 653.37" stroke="hsl(204, 93.8%, 100%)" stroke-width="1.5"></path><path d="M188.39 690.42L188.39 690.42" stroke="hsl(204, 93.8%, 100%)" stroke-width="1.5"></path><path d="M188.39 690.42L345.28 653.37" stroke="hsl(204, 93.8%, 100%)" stroke-width="1.5"></path><path d="M188.39 690.42L232.48 522.12" stroke="hsl(204, 93.8%, 100%)" stroke-width="1.5"></path><path d="M401.7 504.01L401.7 504.01" stroke="hsl(204, 93.8%, 100%)" stroke-width="1.5"></path><path d="M401.7 504.01L513.14 528.63" stroke="hsl(204, 93.8%, 100%)" stroke-width="1.5"></path><path d="M401.7 504.01L345.28 653.37" stroke="hsl(204, 93.8%, 100%)" stroke-width="1.5"></path><path d="M401.7 504.01L664.35 536.93" stroke="hsl(204, 93.8%, 100%)" stroke-width="1.5"></path><path d="M401.7 504.01L657.71 396.74" stroke="hsl(204, 93.8%, 100%)" stroke-width="1.5"></path><path d="M401.7 504.01L188.39 690.42" stroke="hsl(204, 93.8%, 100%)" stroke-width="1.5"></path><path d="M345.28 653.37L345.28 653.37" stroke="hsl(204, 93.8%, 100%)" stroke-width="1.5"></path><path d="M513.14 528.63L513.14 528.63" stroke="hsl(204, 93.8%, 100%)" stroke-width="1.5"></path><path d="M513.14 528.63L664.35 536.93" stroke="hsl(204, 93.8%, 100%)" stroke-width="1.5"></path><path d="M513.14 528.63L657.71 396.74" stroke="hsl(204, 93.8%, 100%)" stroke-width="1.5"></path><path d="M657.71 396.74L657.71 396.74" stroke="hsl(204, 93.8%, 100%)" stroke-width="1.5"></path><path d="M657.71 396.74L664.35 536.93" stroke="hsl(204, 93.8%, 100%)" stroke-width="1.5"></path><path d="M657.71 396.74L849.47 370.51" stroke="hsl(204, 93.8%, 100%)" stroke-width="1.5"></path><path d="M664.35 536.93L664.35 536.93" stroke="hsl(204, 93.8%, 100%)" stroke-width="1.5"></path><path d="M664.35 536.93L696.32 672.57" stroke="hsl(204, 93.8%, 100%)" stroke-width="1.5"></path><path d="M664.35 536.93L799.08 699.62" stroke="hsl(204, 93.8%, 100%)" stroke-width="1.5"></path><path d="M696.32 672.57L696.32 672.57" stroke="hsl(204, 93.8%, 100%)" stroke-width="1.5"></path><path d="M696.32 672.57L799.08 699.62" stroke="hsl(204, 93.8%, 100%)" stroke-width="1.5"></path><path d="M849.47 370.51L849.47 370.51" stroke="hsl(204, 93.8%, 100%)" stroke-width="1.5"></path><path d="M849.47 370.51L961.73 517.2" stroke="hsl(204, 93.8%, 100%)" stroke-width="1.5"></path><path d="M799.08 699.62L799.08 699.62" stroke="hsl(204, 93.8%, 100%)" stroke-width="1.5"></path><path d="M799.08 699.62L1002.82 690.48" stroke="hsl(204, 93.8%, 100%)" stroke-width="1.5"></path><path d="M1002.82 690.48L1002.82 690.48" stroke="hsl(204, 93.8%, 100%)" stroke-width="1.5"></path><path d="M1002.82 690.48L1156.22 706.33" stroke="hsl(204, 93.8%, 100%)" stroke-width="1.5"></path><path d="M1002.82 690.48L1100.67 499.31" stroke="hsl(204, 93.8%, 100%)" stroke-width="1.5"></path><path d="M1137.72 102.2L1137.72 102.2" stroke="hsl(204, 93.8%, 100%)" stroke-width="1.5"></path><path d="M1137.72 102.2L1153.6 212.59" stroke="hsl(204, 93.8%, 100%)" stroke-width="1.5"></path><path d="M1137.72 102.2L1254.4 -42.81" stroke="hsl(204, 93.8%, 100%)" stroke-width="1.5"></path><path d="M1137.72 102.2L1108.08 339.47" stroke="hsl(204, 93.8%, 100%)" stroke-width="1.5"></path><path d="M1137.72 102.2L1413.88 79.28" stroke="hsl(204, 93.8%, 100%)" stroke-width="1.5"></path><path d="M1137.72 102.2L1411.39 223.24" stroke="hsl(204, 93.8%, 100%)" stroke-width="1.5"></path><path d="M1153.6 212.59L1153.6 212.59" stroke="hsl(204, 93.8%, 100%)" stroke-width="1.5"></path><path d="M1153.6 212.59L1108.08 339.47" stroke="hsl(204, 93.8%, 100%)" stroke-width="1.5"></path><path d="M1153.6 212.59L1411.39 223.24" stroke="hsl(204, 93.8%, 100%)" stroke-width="1.5"></path><path d="M1153.6 212.59L1254.4 -42.81" stroke="hsl(204, 93.8%, 100%)" stroke-width="1.5"></path><path d="M1153.6 212.59L1100.67 499.31" stroke="hsl(204, 93.8%, 100%)" stroke-width="1.5"></path><path d="M1108.08 339.47L1108.08 339.47" stroke="hsl(204, 93.8%, 100%)" stroke-width="1.5"></path><path d="M1108.08 339.47L1100.67 499.31" stroke="hsl(204, 93.8%, 100%)" stroke-width="1.5"></path><path d="M1108.08 339.47L961.73 517.2" stroke="hsl(204, 93.8%, 100%)" stroke-width="1.5"></path><path d="M1108.08 339.47L849.47 370.51" stroke="hsl(204, 93.8%, 100%)" stroke-width="1.5"></path><path d="M1108.08 339.47L846.55 495.93" stroke="hsl(204, 93.8%, 100%)" stroke-width="1.5"></path><path d="M1100.67 499.31L1100.67 499.31" stroke="hsl(204, 93.8%, 100%)" stroke-width="1.5"></path><path d="M1100.67 499.31L1156.22 706.33" stroke="hsl(204, 93.8%, 100%)" stroke-width="1.5"></path><path d="M1156.22 706.33L1156.22 706.33" stroke="hsl(204, 93.8%, 100%)" stroke-width="1.5"></path><path d="M1156.22 706.33L1293.86 677.71" stroke="hsl(204, 93.8%, 100%)" stroke-width="1.5"></path><path d="M1156.22 706.33L961.73 517.2" stroke="hsl(204, 93.8%, 100%)" stroke-width="1.5"></path><path d="M1254.4 -42.81L1254.4 -42.81" stroke="hsl(204, 93.8%, 100%)" stroke-width="1.5"></path><path d="M1254.4 -42.81L1413.88 79.28" stroke="hsl(204, 93.8%, 100%)" stroke-width="1.5"></path><path d="M1254.4 -42.81L1461.21 -94.15" stroke="hsl(204, 93.8%, 100%)" stroke-width="1.5"></path><path d="M1254.4 -42.81L1542.38 63.61" stroke="hsl(204, 93.8%, 100%)" stroke-width="1.5"></path><path d="M1254.4 -42.81L1411.39 223.24" stroke="hsl(204, 93.8%, 100%)" stroke-width="1.5"></path><path d="M1293.86 677.71L1293.86 677.71" stroke="hsl(204, 93.8%, 100%)" stroke-width="1.5"></path><path d="M1293.86 677.71L1100.67 499.31" stroke="hsl(204, 93.8%, 100%)" stroke-width="1.5"></path><path d="M1461.21 -94.15L1461.21 -94.15" stroke="hsl(204, 93.8%, 100%)" stroke-width="1.5"></path><path d="M1461.21 -94.15L1582.85 -67.78" stroke="hsl(204, 93.8%, 100%)" stroke-width="1.5"></path><path d="M1461.21 -94.15L1542.38 63.61" stroke="hsl(204, 93.8%, 100%)" stroke-width="1.5"></path><path d="M1411.39 223.24L1411.39 223.24" stroke="hsl(204, 93.8%, 100%)" stroke-width="1.5"></path><path d="M1411.39 223.24L1556.99 198.55" stroke="hsl(204, 93.8%, 100%)" stroke-width="1.5"></path><path d="M1582.85 -67.78L1582.85 -67.78" stroke="hsl(204, 93.8%, 100%)" stroke-width="1.5"></path><path d="M1582.85 -67.78L1542.38 63.61" stroke="hsl(204, 93.8%, 100%)" stroke-width="1.5"></path><path d="M1582.85 -67.78L1413.88 79.28" stroke="hsl(204, 93.8%, 100%)" stroke-width="1.5"></path><path d="M1582.85 -67.78L1556.99 198.55" stroke="hsl(204, 93.8%, 100%)" stroke-width="1.5"></path><path d="M1582.85 -67.78L1254.4 -42.81" stroke="hsl(204, 93.8%, 100%)" stroke-width="1.5"></path><path d="M1582.85 -67.78L1411.39 223.24" stroke="hsl(204, 93.8%, 100%)" stroke-width="1.5"></path><path d="M1542.38 63.61L1542.38 63.61" stroke="hsl(204, 93.8%, 100%)" stroke-width="1.5"></path><path d="M1542.38 63.61L1556.99 198.55" stroke="hsl(204, 93.8%, 100%)" stroke-width="1.5"></path><path d="M1556.99 198.55L1556.99 198.55" stroke="hsl(204, 93.8%, 100%)" stroke-width="1.5"></path><path d="M1556.99 198.55L1586.46 398.65" stroke="hsl(204, 93.8%, 100%)" stroke-width="1.5"></path><path d="M1556.99 198.55L1421.43 385.29" stroke="hsl(204, 93.8%, 100%)" stroke-width="1.5"></path><path d="M1586.46 398.65L1586.46 398.65" stroke="hsl(204, 93.8%, 100%)" stroke-width="1.5"></path><path d="M1586.46 398.65L1565.2 557.88" stroke="hsl(204, 93.8%, 100%)" stroke-width="1.5"></path><path d="M1565.2 557.88L1565.2 557.88" stroke="hsl(204, 93.8%, 100%)" stroke-width="1.5"></path><path d="M1565.2 557.88L1562.66 681.66" stroke="hsl(204, 93.8%, 100%)" stroke-width="1.5"></path><path d="M1565.2 557.88L1421.43 385.29" stroke="hsl(204, 93.8%, 100%)" stroke-width="1.5"></path><path d="M1565.2 557.88L1293.86 677.71" stroke="hsl(204, 93.8%, 100%)" stroke-width="1.5"></path><path d="M1562.66 681.66L1562.66 681.66" stroke="hsl(204, 93.8%, 100%)" stroke-width="1.5"></path><path d="M1562.66 681.66L1293.86 677.71" stroke="hsl(204, 93.8%, 100%)" stroke-width="1.5"></path><circle r="25" cx="846.55" cy="495.93" fill="url(&quot;#SvgjsRadialGradient1053&quot;)"></circle><circle r="25" cx="961.73" cy="517.2" fill="url(&quot;#SvgjsRadialGradient1053&quot;)"></circle><circle r="25" cx="1413.88" cy="79.28" fill="url(&quot;#SvgjsRadialGradient1053&quot;)"></circle><circle r="25" cx="1421.43" cy="385.29" fill="url(&quot;#SvgjsRadialGradient1053&quot;)"></circle><circle r="25" cx="1408.05" cy="553.18" fill="url(&quot;#SvgjsRadialGradient1053&quot;)"></circle><circle r="5" cx="-47.82" cy="523.38" fill="#f0f9ff"></circle><circle r="5" cx="-95.58" cy="708.03" fill="#f0f9ff"></circle><circle r="5" cx="86.45" cy="498.33" fill="#f0f9ff"></circle><circle r="5" cx="86.17" cy="707.18" fill="#f0f9ff"></circle><circle r="5" cx="232.48" cy="522.12" fill="#f0f9ff"></circle><circle r="5" cx="188.39" cy="690.42" fill="#f0f9ff"></circle><circle r="5" cx="401.7" cy="504.01" fill="#f0f9ff"></circle><circle r="5" cx="345.28" cy="653.37" fill="#f0f9ff"></circle><circle r="5" cx="513.14" cy="528.63" fill="#f0f9ff"></circle><circle r="5" cx="657.71" cy="396.74" fill="#f0f9ff"></circle><circle r="5" cx="664.35" cy="536.93" fill="#f0f9ff"></circle><circle r="5" cx="696.32" cy="672.57" fill="#f0f9ff"></circle><circle r="5" cx="849.47" cy="370.51" fill="#f0f9ff"></circle><circle r="5" cx="799.08" cy="699.62" fill="#f0f9ff"></circle><circle r="5" cx="1002.82" cy="690.48" fill="#f0f9ff"></circle><circle r="5" cx="1137.72" cy="102.2" fill="#f0f9ff"></circle><circle r="5" cx="1153.6" cy="212.59" fill="#f0f9ff"></circle><circle r="5" cx="1108.08" cy="339.47" fill="#f0f9ff"></circle><circle r="5" cx="1100.67" cy="499.31" fill="#f0f9ff"></circle><circle r="5" cx="1156.22" cy="706.33" fill="#f0f9ff"></circle><circle r="5" cx="1254.4" cy="-42.81" fill="#f0f9ff"></circle><circle r="5" cx="1293.86" cy="677.71" fill="#f0f9ff"></circle><circle r="5" cx="1461.21" cy="-94.15" fill="#f0f9ff"></circle><circle r="5" cx="1411.39" cy="223.24" fill="#f0f9ff"></circle><circle r="5" cx="1582.85" cy="-67.78" fill="#f0f9ff"></circle><circle r="5" cx="1542.38" cy="63.61" fill="#f0f9ff"></circle><circle r="5" cx="1556.99" cy="198.55" fill="#f0f9ff"></circle><circle r="5" cx="1586.46" cy="398.65" fill="#f0f9ff"></circle><circle r="5" cx="1565.2" cy="557.88" fill="#f0f9ff"></circle><circle r="5" cx="1562.66" cy="681.66" fill="#f0f9ff"></circle></g><defs><mask id="SvgjsMask1052"><rect width="1440" height="560" fill="#ffffff"></rect></mask><radialGradient id="SvgjsRadialGradient1053"><stop stop-color="#ffffff" offset="0.1"></stop><stop stop-color="rgba(224, 242, 254, 1)" offset="0.2"></stop><stop stop-color="rgba(224, 242, 254, 0)" offset="1"></stop></radialGradient></defs></svg>