<svg xmlns="http://www.w3.org/2000/svg" version="1.1" xmlns:xlink="http://www.w3.org/1999/xlink" xmlns:svgjs="http://svgjs.dev/svgjs" width="1440" height="560" preserveAspectRatio="none" viewBox="0 0 1440 560"><g mask="url(&quot;#SvgjsMask1084&quot;)" fill="none"><rect width="1440" height="560" x="0" y="0" fill="rgba(239, 247, 253, 1)"></rect><path d="M-94.49 354.25L-94.49 354.25" stroke="rgba(200, 222, 237, 1)" stroke-width="1.5"></path><path d="M-94.49 354.25L42.43 369.62" stroke="rgba(200, 222, 237, 1)" stroke-width="1.5"></path><path d="M-94.49 354.25L-91.36 495.9" stroke="rgba(200, 222, 237, 1)" stroke-width="1.5"></path><path d="M-94.49 354.25L105.37 509.75" stroke="rgba(200, 222, 237, 1)" stroke-width="1.5"></path><path d="M-91.36 495.9L-91.36 495.9" stroke="rgba(200, 222, 237, 1)" stroke-width="1.5"></path><path d="M-91.36 495.9L42.43 369.62" stroke="rgba(200, 222, 237, 1)" stroke-width="1.5"></path><path d="M-62.81 693.31L-62.81 693.31" stroke="rgba(200, 222, 237, 1)" stroke-width="1.5"></path><path d="M-62.81 693.31L-91.36 495.9" stroke="rgba(200, 222, 237, 1)" stroke-width="1.5"></path><path d="M-62.81 693.31L105.37 509.75" stroke="rgba(200, 222, 237, 1)" stroke-width="1.5"></path><path d="M-62.81 693.31L219.98 677.77" stroke="rgba(200, 222, 237, 1)" stroke-width="1.5"></path><path d="M42.43 369.62L42.43 369.62" stroke="rgba(200, 222, 237, 1)" stroke-width="1.5"></path><path d="M42.43 369.62L105.37 509.75" stroke="rgba(200, 222, 237, 1)" stroke-width="1.5"></path><path d="M42.43 369.62L198.68 345.23" stroke="rgba(200, 222, 237, 1)" stroke-width="1.5"></path><path d="M105.37 509.75L105.37 509.75" stroke="rgba(200, 222, 237, 1)" stroke-width="1.5"></path><path d="M105.37 509.75L253.67 497.91" stroke="rgba(200, 222, 237, 1)" stroke-width="1.5"></path><path d="M105.37 509.75L198.68 345.23" stroke="rgba(200, 222, 237, 1)" stroke-width="1.5"></path><path d="M105.37 509.75L-91.36 495.9" stroke="rgba(200, 222, 237, 1)" stroke-width="1.5"></path><path d="M105.37 509.75L219.98 677.77" stroke="rgba(200, 222, 237, 1)" stroke-width="1.5"></path><path d="M198.68 345.23L198.68 345.23" stroke="rgba(200, 222, 237, 1)" stroke-width="1.5"></path><path d="M198.68 345.23L253.67 497.91" stroke="rgba(200, 222, 237, 1)" stroke-width="1.5"></path><path d="M198.68 345.23L389.93 404.31" stroke="rgba(200, 222, 237, 1)" stroke-width="1.5"></path><path d="M198.68 345.23L379.58 559.93" stroke="rgba(200, 222, 237, 1)" stroke-width="1.5"></path><path d="M198.68 345.23L-94.49 354.25" stroke="rgba(200, 222, 237, 1)" stroke-width="1.5"></path><path d="M253.67 497.91L253.67 497.91" stroke="rgba(200, 222, 237, 1)" stroke-width="1.5"></path><path d="M253.67 497.91L379.58 559.93" stroke="rgba(200, 222, 237, 1)" stroke-width="1.5"></path><path d="M219.98 677.77L219.98 677.77" stroke="rgba(200, 222, 237, 1)" stroke-width="1.5"></path><path d="M219.98 677.77L350.63 645.65" stroke="rgba(200, 222, 237, 1)" stroke-width="1.5"></path><path d="M219.98 677.77L253.67 497.91" stroke="rgba(200, 222, 237, 1)" stroke-width="1.5"></path><path d="M219.98 677.77L379.58 559.93" stroke="rgba(200, 222, 237, 1)" stroke-width="1.5"></path><path d="M389.93 404.31L389.93 404.31" stroke="rgba(200, 222, 237, 1)" stroke-width="1.5"></path><path d="M389.93 404.31L379.58 559.93" stroke="rgba(200, 222, 237, 1)" stroke-width="1.5"></path><path d="M389.93 404.31L253.67 497.91" stroke="rgba(200, 222, 237, 1)" stroke-width="1.5"></path><path d="M389.93 404.31L555.72 369.21" stroke="rgba(200, 222, 237, 1)" stroke-width="1.5"></path><path d="M389.93 404.31L553.3 507.17" stroke="rgba(200, 222, 237, 1)" stroke-width="1.5"></path><path d="M389.93 404.31L350.63 645.65" stroke="rgba(200, 222, 237, 1)" stroke-width="1.5"></path><path d="M379.58 559.93L379.58 559.93" stroke="rgba(200, 222, 237, 1)" stroke-width="1.5"></path><path d="M379.58 559.93L350.63 645.65" stroke="rgba(200, 222, 237, 1)" stroke-width="1.5"></path><path d="M350.63 645.65L350.63 645.65" stroke="rgba(200, 222, 237, 1)" stroke-width="1.5"></path><path d="M350.63 645.65L514.53 698.56" stroke="rgba(200, 222, 237, 1)" stroke-width="1.5"></path><path d="M555.72 369.21L555.72 369.21" stroke="rgba(200, 222, 237, 1)" stroke-width="1.5"></path><path d="M555.72 369.21L680.28 362.32" stroke="rgba(200, 222, 237, 1)" stroke-width="1.5"></path><path d="M555.72 369.21L553.3 507.17" stroke="rgba(200, 222, 237, 1)" stroke-width="1.5"></path><path d="M553.3 507.17L553.3 507.17" stroke="rgba(200, 222, 237, 1)" stroke-width="1.5"></path><path d="M553.3 507.17L661.2 545" stroke="rgba(200, 222, 237, 1)" stroke-width="1.5"></path><path d="M514.53 698.56L514.53 698.56" stroke="rgba(200, 222, 237, 1)" stroke-width="1.5"></path><path d="M514.53 698.56L664.54 659.38" stroke="rgba(200, 222, 237, 1)" stroke-width="1.5"></path><path d="M680.28 362.32L680.28 362.32" stroke="rgba(200, 222, 237, 1)" stroke-width="1.5"></path><path d="M680.28 362.32L826.35 395.98" stroke="rgba(200, 222, 237, 1)" stroke-width="1.5"></path><path d="M661.2 545L661.2 545" stroke="rgba(200, 222, 237, 1)" stroke-width="1.5"></path><path d="M661.2 545L664.54 659.38" stroke="rgba(200, 222, 237, 1)" stroke-width="1.5"></path><path d="M661.2 545L680.28 362.32" stroke="rgba(200, 222, 237, 1)" stroke-width="1.5"></path><path d="M661.2 545L816.01 668.81" stroke="rgba(200, 222, 237, 1)" stroke-width="1.5"></path><path d="M661.2 545L860.34 517.9" stroke="rgba(200, 222, 237, 1)" stroke-width="1.5"></path><path d="M664.54 659.38L664.54 659.38" stroke="rgba(200, 222, 237, 1)" stroke-width="1.5"></path><path d="M795.65 222.66L795.65 222.66" stroke="rgba(200, 222, 237, 1)" stroke-width="1.5"></path><path d="M795.65 222.66L958.36 205.38" stroke="rgba(200, 222, 237, 1)" stroke-width="1.5"></path><path d="M795.65 222.66L826.35 395.98" stroke="rgba(200, 222, 237, 1)" stroke-width="1.5"></path><path d="M826.35 395.98L826.35 395.98" stroke="rgba(200, 222, 237, 1)" stroke-width="1.5"></path><path d="M826.35 395.98L860.34 517.9" stroke="rgba(200, 222, 237, 1)" stroke-width="1.5"></path><path d="M826.35 395.98L1010.32 514.81" stroke="rgba(200, 222, 237, 1)" stroke-width="1.5"></path><path d="M826.35 395.98L661.2 545" stroke="rgba(200, 222, 237, 1)" stroke-width="1.5"></path><path d="M826.35 395.98L958.36 205.38" stroke="rgba(200, 222, 237, 1)" stroke-width="1.5"></path><path d="M860.34 517.9L860.34 517.9" stroke="rgba(200, 222, 237, 1)" stroke-width="1.5"></path><path d="M860.34 517.9L1010.32 514.81" stroke="rgba(200, 222, 237, 1)" stroke-width="1.5"></path><path d="M860.34 517.9L816.01 668.81" stroke="rgba(200, 222, 237, 1)" stroke-width="1.5"></path><path d="M816.01 668.81L816.01 668.81" stroke="rgba(200, 222, 237, 1)" stroke-width="1.5"></path><path d="M816.01 668.81L664.54 659.38" stroke="rgba(200, 222, 237, 1)" stroke-width="1.5"></path><path d="M816.01 668.81L1001.94 658.66" stroke="rgba(200, 222, 237, 1)" stroke-width="1.5"></path><path d="M816.01 668.81L1010.32 514.81" stroke="rgba(200, 222, 237, 1)" stroke-width="1.5"></path><path d="M816.01 668.81L826.35 395.98" stroke="rgba(200, 222, 237, 1)" stroke-width="1.5"></path><path d="M964.26 -56.64L964.26 -56.64" stroke="rgba(200, 222, 237, 1)" stroke-width="1.5"></path><path d="M964.26 -56.64L1006.43 60.97" stroke="rgba(200, 222, 237, 1)" stroke-width="1.5"></path><path d="M964.26 -56.64L1113.1 -97.05" stroke="rgba(200, 222, 237, 1)" stroke-width="1.5"></path><path d="M964.26 -56.64L1090.8 106.48" stroke="rgba(200, 222, 237, 1)" stroke-width="1.5"></path><path d="M964.26 -56.64L958.36 205.38" stroke="rgba(200, 222, 237, 1)" stroke-width="1.5"></path><path d="M964.26 -56.64L1255.24 -42.85" stroke="rgba(200, 222, 237, 1)" stroke-width="1.5"></path><path d="M964.26 -56.64L1238.03 52.14" stroke="rgba(200, 222, 237, 1)" stroke-width="1.5"></path><path d="M1006.43 60.97L1006.43 60.97" stroke="rgba(200, 222, 237, 1)" stroke-width="1.5"></path><path d="M1006.43 60.97L1090.8 106.48" stroke="rgba(200, 222, 237, 1)" stroke-width="1.5"></path><path d="M958.36 205.38L958.36 205.38" stroke="rgba(200, 222, 237, 1)" stroke-width="1.5"></path><path d="M958.36 205.38L1006.43 60.97" stroke="rgba(200, 222, 237, 1)" stroke-width="1.5"></path><path d="M958.36 205.38L1090.8 106.48" stroke="rgba(200, 222, 237, 1)" stroke-width="1.5"></path><path d="M958.36 205.38L1132.29 214.94" stroke="rgba(200, 222, 237, 1)" stroke-width="1.5"></path><path d="M1010.32 514.81L1010.32 514.81" stroke="rgba(200, 222, 237, 1)" stroke-width="1.5"></path><path d="M1010.32 514.81L1001.94 658.66" stroke="rgba(200, 222, 237, 1)" stroke-width="1.5"></path><path d="M1001.94 658.66L1001.94 658.66" stroke="rgba(200, 222, 237, 1)" stroke-width="1.5"></path><path d="M1001.94 658.66L1124.43 680.15" stroke="rgba(200, 222, 237, 1)" stroke-width="1.5"></path><path d="M1113.1 -97.05L1113.1 -97.05" stroke="rgba(200, 222, 237, 1)" stroke-width="1.5"></path><path d="M1113.1 -97.05L1255.24 -42.85" stroke="rgba(200, 222, 237, 1)" stroke-width="1.5"></path><path d="M1113.1 -97.05L1006.43 60.97" stroke="rgba(200, 222, 237, 1)" stroke-width="1.5"></path><path d="M1113.1 -97.05L1238.03 52.14" stroke="rgba(200, 222, 237, 1)" stroke-width="1.5"></path><path d="M1113.1 -97.05L1090.8 106.48" stroke="rgba(200, 222, 237, 1)" stroke-width="1.5"></path><path d="M1090.8 106.48L1090.8 106.48" stroke="rgba(200, 222, 237, 1)" stroke-width="1.5"></path><path d="M1090.8 106.48L1132.29 214.94" stroke="rgba(200, 222, 237, 1)" stroke-width="1.5"></path><path d="M1090.8 106.48L1238.03 52.14" stroke="rgba(200, 222, 237, 1)" stroke-width="1.5"></path><path d="M1132.29 214.94L1132.29 214.94" stroke="rgba(200, 222, 237, 1)" stroke-width="1.5"></path><path d="M1132.29 214.94L1274.48 222.78" stroke="rgba(200, 222, 237, 1)" stroke-width="1.5"></path><path d="M1132.29 214.94L1147.77 381.91" stroke="rgba(200, 222, 237, 1)" stroke-width="1.5"></path><path d="M1132.29 214.94L1238.03 52.14" stroke="rgba(200, 222, 237, 1)" stroke-width="1.5"></path><path d="M1147.77 381.91L1147.77 381.91" stroke="rgba(200, 222, 237, 1)" stroke-width="1.5"></path><path d="M1147.77 381.91L1310.34 405.53" stroke="rgba(200, 222, 237, 1)" stroke-width="1.5"></path><path d="M1147.77 381.91L1160.53 545.86" stroke="rgba(200, 222, 237, 1)" stroke-width="1.5"></path><path d="M1160.53 545.86L1160.53 545.86" stroke="rgba(200, 222, 237, 1)" stroke-width="1.5"></path><path d="M1160.53 545.86L1265.64 540.27" stroke="rgba(200, 222, 237, 1)" stroke-width="1.5"></path><path d="M1160.53 545.86L1124.43 680.15" stroke="rgba(200, 222, 237, 1)" stroke-width="1.5"></path><path d="M1160.53 545.86L1010.32 514.81" stroke="rgba(200, 222, 237, 1)" stroke-width="1.5"></path><path d="M1124.43 680.15L1124.43 680.15" stroke="rgba(200, 222, 237, 1)" stroke-width="1.5"></path><path d="M1124.43 680.15L1282.7 656.25" stroke="rgba(200, 222, 237, 1)" stroke-width="1.5"></path><path d="M1124.43 680.15L1265.64 540.27" stroke="rgba(200, 222, 237, 1)" stroke-width="1.5"></path><path d="M1255.24 -42.85L1255.24 -42.85" stroke="rgba(200, 222, 237, 1)" stroke-width="1.5"></path><path d="M1255.24 -42.85L1238.03 52.14" stroke="rgba(200, 222, 237, 1)" stroke-width="1.5"></path><path d="M1255.24 -42.85L1439.84 -105.77" stroke="rgba(200, 222, 237, 1)" stroke-width="1.5"></path><path d="M1255.24 -42.85L1447.95 64.02" stroke="rgba(200, 222, 237, 1)" stroke-width="1.5"></path><path d="M1255.24 -42.85L1090.8 106.48" stroke="rgba(200, 222, 237, 1)" stroke-width="1.5"></path><path d="M1255.24 -42.85L1274.48 222.78" stroke="rgba(200, 222, 237, 1)" stroke-width="1.5"></path><path d="M1238.03 52.14L1238.03 52.14" stroke="rgba(200, 222, 237, 1)" stroke-width="1.5"></path><path d="M1274.48 222.78L1274.48 222.78" stroke="rgba(200, 222, 237, 1)" stroke-width="1.5"></path><path d="M1274.48 222.78L1402.26 256.67" stroke="rgba(200, 222, 237, 1)" stroke-width="1.5"></path><path d="M1274.48 222.78L1238.03 52.14" stroke="rgba(200, 222, 237, 1)" stroke-width="1.5"></path><path d="M1310.34 405.53L1310.34 405.53" stroke="rgba(200, 222, 237, 1)" stroke-width="1.5"></path><path d="M1310.34 405.53L1265.64 540.27" stroke="rgba(200, 222, 237, 1)" stroke-width="1.5"></path><path d="M1310.34 405.53L1458.33 381.71" stroke="rgba(200, 222, 237, 1)" stroke-width="1.5"></path><path d="M1310.34 405.53L1446.48 512.88" stroke="rgba(200, 222, 237, 1)" stroke-width="1.5"></path><path d="M1310.34 405.53L1402.26 256.67" stroke="rgba(200, 222, 237, 1)" stroke-width="1.5"></path><path d="M1310.34 405.53L1274.48 222.78" stroke="rgba(200, 222, 237, 1)" stroke-width="1.5"></path><path d="M1265.64 540.27L1265.64 540.27" stroke="rgba(200, 222, 237, 1)" stroke-width="1.5"></path><path d="M1265.64 540.27L1282.7 656.25" stroke="rgba(200, 222, 237, 1)" stroke-width="1.5"></path><path d="M1265.64 540.27L1446.48 512.88" stroke="rgba(200, 222, 237, 1)" stroke-width="1.5"></path><path d="M1282.7 656.25L1282.7 656.25" stroke="rgba(200, 222, 237, 1)" stroke-width="1.5"></path><path d="M1282.7 656.25L1387.89 711.7" stroke="rgba(200, 222, 237, 1)" stroke-width="1.5"></path><path d="M1282.7 656.25L1160.53 545.86" stroke="rgba(200, 222, 237, 1)" stroke-width="1.5"></path><path d="M1282.7 656.25L1446.48 512.88" stroke="rgba(200, 222, 237, 1)" stroke-width="1.5"></path><path d="M1439.84 -105.77L1439.84 -105.77" stroke="rgba(200, 222, 237, 1)" stroke-width="1.5"></path><path d="M1439.84 -105.77L1595.02 -71.42" stroke="rgba(200, 222, 237, 1)" stroke-width="1.5"></path><path d="M1439.84 -105.77L1447.95 64.02" stroke="rgba(200, 222, 237, 1)" stroke-width="1.5"></path><path d="M1447.95 64.02L1447.95 64.02" stroke="rgba(200, 222, 237, 1)" stroke-width="1.5"></path><path d="M1447.95 64.02L1601.9 62.74" stroke="rgba(200, 222, 237, 1)" stroke-width="1.5"></path><path d="M1447.95 64.02L1553.22 210.91" stroke="rgba(200, 222, 237, 1)" stroke-width="1.5"></path><path d="M1447.95 64.02L1402.26 256.67" stroke="rgba(200, 222, 237, 1)" stroke-width="1.5"></path><path d="M1447.95 64.02L1595.02 -71.42" stroke="rgba(200, 222, 237, 1)" stroke-width="1.5"></path><path d="M1402.26 256.67L1402.26 256.67" stroke="rgba(200, 222, 237, 1)" stroke-width="1.5"></path><path d="M1402.26 256.67L1458.33 381.71" stroke="rgba(200, 222, 237, 1)" stroke-width="1.5"></path><path d="M1402.26 256.67L1553.22 210.91" stroke="rgba(200, 222, 237, 1)" stroke-width="1.5"></path><path d="M1458.33 381.71L1458.33 381.71" stroke="rgba(200, 222, 237, 1)" stroke-width="1.5"></path><path d="M1458.33 381.71L1580.54 399.6" stroke="rgba(200, 222, 237, 1)" stroke-width="1.5"></path><path d="M1458.33 381.71L1446.48 512.88" stroke="rgba(200, 222, 237, 1)" stroke-width="1.5"></path><path d="M1446.48 512.88L1446.48 512.88" stroke="rgba(200, 222, 237, 1)" stroke-width="1.5"></path><path d="M1446.48 512.88L1592.2 542.01" stroke="rgba(200, 222, 237, 1)" stroke-width="1.5"></path><path d="M1446.48 512.88L1580.54 399.6" stroke="rgba(200, 222, 237, 1)" stroke-width="1.5"></path><path d="M1387.89 711.7L1387.89 711.7" stroke="rgba(200, 222, 237, 1)" stroke-width="1.5"></path><path d="M1387.89 711.7L1446.48 512.88" stroke="rgba(200, 222, 237, 1)" stroke-width="1.5"></path><path d="M1387.89 711.7L1265.64 540.27" stroke="rgba(200, 222, 237, 1)" stroke-width="1.5"></path><path d="M1595.02 -71.42L1595.02 -71.42" stroke="rgba(200, 222, 237, 1)" stroke-width="1.5"></path><path d="M1595.02 -71.42L1601.9 62.74" stroke="rgba(200, 222, 237, 1)" stroke-width="1.5"></path><path d="M1601.9 62.74L1601.9 62.74" stroke="rgba(200, 222, 237, 1)" stroke-width="1.5"></path><path d="M1601.9 62.74L1553.22 210.91" stroke="rgba(200, 222, 237, 1)" stroke-width="1.5"></path><path d="M1601.9 62.74L1439.84 -105.77" stroke="rgba(200, 222, 237, 1)" stroke-width="1.5"></path><path d="M1601.9 62.74L1402.26 256.67" stroke="rgba(200, 222, 237, 1)" stroke-width="1.5"></path><path d="M1553.22 210.91L1553.22 210.91" stroke="rgba(200, 222, 237, 1)" stroke-width="1.5"></path><path d="M1553.22 210.91L1580.54 399.6" stroke="rgba(200, 222, 237, 1)" stroke-width="1.5"></path><path d="M1553.22 210.91L1458.33 381.71" stroke="rgba(200, 222, 237, 1)" stroke-width="1.5"></path><path d="M1553.22 210.91L1274.48 222.78" stroke="rgba(200, 222, 237, 1)" stroke-width="1.5"></path><path d="M1580.54 399.6L1580.54 399.6" stroke="rgba(200, 222, 237, 1)" stroke-width="1.5"></path><path d="M1580.54 399.6L1592.2 542.01" stroke="rgba(200, 222, 237, 1)" stroke-width="1.5"></path><path d="M1580.54 399.6L1402.26 256.67" stroke="rgba(200, 222, 237, 1)" stroke-width="1.5"></path><path d="M1592.2 542.01L1592.2 542.01" stroke="rgba(200, 222, 237, 1)" stroke-width="1.5"></path><path d="M1592.2 542.01L1604.96 679.77" stroke="rgba(200, 222, 237, 1)" stroke-width="1.5"></path><path d="M1604.96 679.77L1604.96 679.77" stroke="rgba(200, 222, 237, 1)" stroke-width="1.5"></path><path d="M1604.96 679.77L1387.89 711.7" stroke="rgba(200, 222, 237, 1)" stroke-width="1.5"></path><path d="M1604.96 679.77L1446.48 512.88" stroke="rgba(200, 222, 237, 1)" stroke-width="1.5"></path><circle r="5" cx="-94.49" cy="354.25" fill="rgba(200, 222, 237, 1)"></circle><circle r="5" cx="-91.36" cy="495.9" fill="rgba(200, 222, 237, 1)"></circle><circle r="5" cx="-62.81" cy="693.31" fill="rgba(200, 222, 237, 1)"></circle><circle r="5" cx="42.43" cy="369.62" fill="rgba(200, 222, 237, 1)"></circle><circle r="5" cx="105.37" cy="509.75" fill="rgba(200, 222, 237, 1)"></circle><circle r="5" cx="198.68" cy="345.23" fill="rgba(200, 222, 237, 1)"></circle><circle r="5" cx="253.67" cy="497.91" fill="rgba(200, 222, 237, 1)"></circle><circle r="5" cx="219.98" cy="677.77" fill="rgba(200, 222, 237, 1)"></circle><circle r="5" cx="389.93" cy="404.31" fill="rgba(200, 222, 237, 1)"></circle><circle r="5" cx="379.58" cy="559.93" fill="rgba(200, 222, 237, 1)"></circle><circle r="5" cx="350.63" cy="645.65" fill="rgba(200, 222, 237, 1)"></circle><circle r="5" cx="555.72" cy="369.21" fill="rgba(200, 222, 237, 1)"></circle><circle r="5" cx="553.3" cy="507.17" fill="rgba(200, 222, 237, 1)"></circle><circle r="5" cx="514.53" cy="698.56" fill="rgba(200, 222, 237, 1)"></circle><circle r="5" cx="680.28" cy="362.32" fill="rgba(200, 222, 237, 1)"></circle><circle r="5" cx="661.2" cy="545" fill="rgba(200, 222, 237, 1)"></circle><circle r="5" cx="664.54" cy="659.38" fill="rgba(200, 222, 237, 1)"></circle><circle r="5" cx="795.65" cy="222.66" fill="rgba(200, 222, 237, 1)"></circle><circle r="5" cx="826.35" cy="395.98" fill="rgba(200, 222, 237, 1)"></circle><circle r="5" cx="860.34" cy="517.9" fill="rgba(200, 222, 237, 1)"></circle><circle r="5" cx="816.01" cy="668.81" fill="rgba(200, 222, 237, 1)"></circle><circle r="5" cx="964.26" cy="-56.64" fill="rgba(200, 222, 237, 1)"></circle><circle r="5" cx="1006.43" cy="60.97" fill="rgba(200, 222, 237, 1)"></circle><circle r="5" cx="958.36" cy="205.38" fill="rgba(200, 222, 237, 1)"></circle><circle r="5" cx="1010.32" cy="514.81" fill="rgba(200, 222, 237, 1)"></circle><circle r="5" cx="1001.94" cy="658.66" fill="rgba(200, 222, 237, 1)"></circle><circle r="5" cx="1113.1" cy="-97.05" fill="rgba(200, 222, 237, 1)"></circle><circle r="5" cx="1090.8" cy="106.48" fill="rgba(200, 222, 237, 1)"></circle><circle r="5" cx="1132.29" cy="214.94" fill="rgba(200, 222, 237, 1)"></circle><circle r="5" cx="1147.77" cy="381.91" fill="rgba(200, 222, 237, 1)"></circle><circle r="5" cx="1160.53" cy="545.86" fill="rgba(200, 222, 237, 1)"></circle><circle r="5" cx="1124.43" cy="680.15" fill="rgba(200, 222, 237, 1)"></circle><circle r="5" cx="1255.24" cy="-42.85" fill="rgba(200, 222, 237, 1)"></circle><circle r="5" cx="1238.03" cy="52.14" fill="rgba(200, 222, 237, 1)"></circle><circle r="5" cx="1274.48" cy="222.78" fill="rgba(200, 222, 237, 1)"></circle><circle r="5" cx="1310.34" cy="405.53" fill="rgba(200, 222, 237, 1)"></circle><circle r="5" cx="1265.64" cy="540.27" fill="rgba(200, 222, 237, 1)"></circle><circle r="5" cx="1282.7" cy="656.25" fill="rgba(200, 222, 237, 1)"></circle><circle r="5" cx="1439.84" cy="-105.77" fill="rgba(200, 222, 237, 1)"></circle><circle r="5" cx="1447.95" cy="64.02" fill="rgba(200, 222, 237, 1)"></circle><circle r="5" cx="1402.26" cy="256.67" fill="rgba(200, 222, 237, 1)"></circle><circle r="5" cx="1458.33" cy="381.71" fill="rgba(200, 222, 237, 1)"></circle><circle r="5" cx="1446.48" cy="512.88" fill="rgba(200, 222, 237, 1)"></circle><circle r="5" cx="1387.89" cy="711.7" fill="rgba(200, 222, 237, 1)"></circle><circle r="5" cx="1595.02" cy="-71.42" fill="rgba(200, 222, 237, 1)"></circle><circle r="5" cx="1601.9" cy="62.74" fill="rgba(200, 222, 237, 1)"></circle><circle r="5" cx="1553.22" cy="210.91" fill="rgba(200, 222, 237, 1)"></circle><circle r="5" cx="1580.54" cy="399.6" fill="rgba(200, 222, 237, 1)"></circle><circle r="5" cx="1592.2" cy="542.01" fill="rgba(200, 222, 237, 1)"></circle><circle r="5" cx="1604.96" cy="679.77" fill="rgba(200, 222, 237, 1)"></circle><path d="M83.03 647.89L83.03 647.89" stroke="hsl(204, 93.8%, 100%)" stroke-width="1.5"></path><path d="M83.03 647.89L41.88 557.42" stroke="hsl(204, 93.8%, 100%)" stroke-width="1.5"></path><path d="M83.03 647.89L187.95 684.63" stroke="hsl(204, 93.8%, 100%)" stroke-width="1.5"></path><path d="M83.03 647.89L-100.24 645.93" stroke="hsl(204, 93.8%, 100%)" stroke-width="1.5"></path><path d="M83.03 647.89L222.29 495.98" stroke="hsl(204, 93.8%, 100%)" stroke-width="1.5"></path><path d="M83.03 647.89L-98.29 499.62" stroke="hsl(204, 93.8%, 100%)" stroke-width="1.5"></path><path d="M222.29 495.98L222.29 495.98" stroke="hsl(204, 93.8%, 100%)" stroke-width="1.5"></path><path d="M222.29 495.98L385.24 505.59" stroke="hsl(204, 93.8%, 100%)" stroke-width="1.5"></path><path d="M222.29 495.98L41.88 557.42" stroke="hsl(204, 93.8%, 100%)" stroke-width="1.5"></path><path d="M222.29 495.98L187.95 684.63" stroke="hsl(204, 93.8%, 100%)" stroke-width="1.5"></path><path d="M222.29 495.98L368.04 691.16" stroke="hsl(204, 93.8%, 100%)" stroke-width="1.5"></path><path d="M222.29 495.98L538.21 507.57" stroke="hsl(204, 93.8%, 100%)" stroke-width="1.5"></path><path d="M187.95 684.63L187.95 684.63" stroke="hsl(204, 93.8%, 100%)" stroke-width="1.5"></path><path d="M187.95 684.63L368.04 691.16" stroke="hsl(204, 93.8%, 100%)" stroke-width="1.5"></path><path d="M187.95 684.63L41.88 557.42" stroke="hsl(204, 93.8%, 100%)" stroke-width="1.5"></path><path d="M187.95 684.63L385.24 505.59" stroke="hsl(204, 93.8%, 100%)" stroke-width="1.5"></path><path d="M187.95 684.63L-100.24 645.93" stroke="hsl(204, 93.8%, 100%)" stroke-width="1.5"></path><path d="M368.04 691.16L368.04 691.16" stroke="hsl(204, 93.8%, 100%)" stroke-width="1.5"></path><path d="M368.04 691.16L509.16 693.84" stroke="hsl(204, 93.8%, 100%)" stroke-width="1.5"></path><path d="M368.04 691.16L385.24 505.59" stroke="hsl(204, 93.8%, 100%)" stroke-width="1.5"></path><path d="M368.04 691.16L538.21 507.57" stroke="hsl(204, 93.8%, 100%)" stroke-width="1.5"></path><path d="M821.63 503.68L821.63 503.68" stroke="hsl(204, 93.8%, 100%)" stroke-width="1.5"></path><path d="M821.63 503.68L799.89 361.94" stroke="hsl(204, 93.8%, 100%)" stroke-width="1.5"></path><path d="M821.63 503.68L710.55 406.23" stroke="hsl(204, 93.8%, 100%)" stroke-width="1.5"></path><path d="M821.63 503.68L669.22 556.08" stroke="hsl(204, 93.8%, 100%)" stroke-width="1.5"></path><path d="M821.63 503.68L1005.35 512.3" stroke="hsl(204, 93.8%, 100%)" stroke-width="1.5"></path><path d="M821.63 503.68L833.92 702.73" stroke="hsl(204, 93.8%, 100%)" stroke-width="1.5"></path><path d="M1001.88 377.2L1001.88 377.2" stroke="hsl(204, 93.8%, 100%)" stroke-width="1.5"></path><path d="M1001.88 377.2L1005.35 512.3" stroke="hsl(204, 93.8%, 100%)" stroke-width="1.5"></path><path d="M1001.88 377.2L1146.73 401.76" stroke="hsl(204, 93.8%, 100%)" stroke-width="1.5"></path><path d="M1001.88 377.2L1111.12 236.73" stroke="hsl(204, 93.8%, 100%)" stroke-width="1.5"></path><path d="M1001.88 377.2L799.89 361.94" stroke="hsl(204, 93.8%, 100%)" stroke-width="1.5"></path><path d="M1001.88 377.2L1141.62 542.65" stroke="hsl(204, 93.8%, 100%)" stroke-width="1.5"></path><path d="M1111.12 236.73L1111.12 236.73" stroke="hsl(204, 93.8%, 100%)" stroke-width="1.5"></path><path d="M1111.12 236.73L1139 90.55" stroke="hsl(204, 93.8%, 100%)" stroke-width="1.5"></path><path d="M1111.12 236.73L1146.73 401.76" stroke="hsl(204, 93.8%, 100%)" stroke-width="1.5"></path><path d="M1111.12 236.73L1286.78 203.38" stroke="hsl(204, 93.8%, 100%)" stroke-width="1.5"></path><path d="M1286.78 203.38L1286.78 203.38" stroke="hsl(204, 93.8%, 100%)" stroke-width="1.5"></path><path d="M1286.78 203.38L1290.51 47.72" stroke="hsl(204, 93.8%, 100%)" stroke-width="1.5"></path><path d="M1286.78 203.38L1456.34 260.87" stroke="hsl(204, 93.8%, 100%)" stroke-width="1.5"></path><path d="M1286.78 203.38L1139 90.55" stroke="hsl(204, 93.8%, 100%)" stroke-width="1.5"></path><path d="M1286.78 203.38L1309.88 394.64" stroke="hsl(204, 93.8%, 100%)" stroke-width="1.5"></path><path d="M1309.88 394.64L1309.88 394.64" stroke="hsl(204, 93.8%, 100%)" stroke-width="1.5"></path><path d="M1309.88 394.64L1450.64 373.82" stroke="hsl(204, 93.8%, 100%)" stroke-width="1.5"></path><path d="M1309.88 394.64L1146.73 401.76" stroke="hsl(204, 93.8%, 100%)" stroke-width="1.5"></path><path d="M1309.88 394.64L1256.12 555.22" stroke="hsl(204, 93.8%, 100%)" stroke-width="1.5"></path><path d="M1309.88 394.64L1389.67 554.63" stroke="hsl(204, 93.8%, 100%)" stroke-width="1.5"></path><path d="M1309.88 394.64L1456.34 260.87" stroke="hsl(204, 93.8%, 100%)" stroke-width="1.5"></path><path d="M1307.13 648.91L1307.13 648.91" stroke="hsl(204, 93.8%, 100%)" stroke-width="1.5"></path><path d="M1307.13 648.91L1398.5 700.3" stroke="hsl(204, 93.8%, 100%)" stroke-width="1.5"></path><path d="M1307.13 648.91L1256.12 555.22" stroke="hsl(204, 93.8%, 100%)" stroke-width="1.5"></path><path d="M1307.13 648.91L1389.67 554.63" stroke="hsl(204, 93.8%, 100%)" stroke-width="1.5"></path><path d="M-98.29 499.62L-98.29 499.62" stroke="hsl(204, 93.8%, 100%)" stroke-width="1.5"></path><path d="M-98.29 499.62L-100.24 645.93" stroke="hsl(204, 93.8%, 100%)" stroke-width="1.5"></path><path d="M-98.29 499.62L41.88 557.42" stroke="hsl(204, 93.8%, 100%)" stroke-width="1.5"></path><path d="M-100.24 645.93L-100.24 645.93" stroke="hsl(204, 93.8%, 100%)" stroke-width="1.5"></path><path d="M-100.24 645.93L41.88 557.42" stroke="hsl(204, 93.8%, 100%)" stroke-width="1.5"></path><path d="M-100.24 645.93L222.29 495.98" stroke="hsl(204, 93.8%, 100%)" stroke-width="1.5"></path><path d="M-100.24 645.93L368.04 691.16" stroke="hsl(204, 93.8%, 100%)" stroke-width="1.5"></path><path d="M41.88 557.42L41.88 557.42" stroke="hsl(204, 93.8%, 100%)" stroke-width="1.5"></path><path d="M41.88 557.42L385.24 505.59" stroke="hsl(204, 93.8%, 100%)" stroke-width="1.5"></path><path d="M385.24 505.59L385.24 505.59" stroke="hsl(204, 93.8%, 100%)" stroke-width="1.5"></path><path d="M385.24 505.59L538.21 507.57" stroke="hsl(204, 93.8%, 100%)" stroke-width="1.5"></path><path d="M385.24 505.59L509.16 693.84" stroke="hsl(204, 93.8%, 100%)" stroke-width="1.5"></path><path d="M385.24 505.59L669.22 556.08" stroke="hsl(204, 93.8%, 100%)" stroke-width="1.5"></path><path d="M538.21 507.57L538.21 507.57" stroke="hsl(204, 93.8%, 100%)" stroke-width="1.5"></path><path d="M538.21 507.57L669.22 556.08" stroke="hsl(204, 93.8%, 100%)" stroke-width="1.5"></path><path d="M538.21 507.57L509.16 693.84" stroke="hsl(204, 93.8%, 100%)" stroke-width="1.5"></path><path d="M538.21 507.57L659.17 661.98" stroke="hsl(204, 93.8%, 100%)" stroke-width="1.5"></path><path d="M538.21 507.57L710.55 406.23" stroke="hsl(204, 93.8%, 100%)" stroke-width="1.5"></path><path d="M509.16 693.84L509.16 693.84" stroke="hsl(204, 93.8%, 100%)" stroke-width="1.5"></path><path d="M509.16 693.84L659.17 661.98" stroke="hsl(204, 93.8%, 100%)" stroke-width="1.5"></path><path d="M509.16 693.84L669.22 556.08" stroke="hsl(204, 93.8%, 100%)" stroke-width="1.5"></path><path d="M710.55 406.23L710.55 406.23" stroke="hsl(204, 93.8%, 100%)" stroke-width="1.5"></path><path d="M710.55 406.23L799.89 361.94" stroke="hsl(204, 93.8%, 100%)" stroke-width="1.5"></path><path d="M710.55 406.23L669.22 556.08" stroke="hsl(204, 93.8%, 100%)" stroke-width="1.5"></path><path d="M669.22 556.08L669.22 556.08" stroke="hsl(204, 93.8%, 100%)" stroke-width="1.5"></path><path d="M669.22 556.08L659.17 661.98" stroke="hsl(204, 93.8%, 100%)" stroke-width="1.5"></path><path d="M659.17 661.98L659.17 661.98" stroke="hsl(204, 93.8%, 100%)" stroke-width="1.5"></path><path d="M799.89 361.94L799.89 361.94" stroke="hsl(204, 93.8%, 100%)" stroke-width="1.5"></path><path d="M833.92 702.73L833.92 702.73" stroke="hsl(204, 93.8%, 100%)" stroke-width="1.5"></path><path d="M833.92 702.73L967.58 655.31" stroke="hsl(204, 93.8%, 100%)" stroke-width="1.5"></path><path d="M833.92 702.73L659.17 661.98" stroke="hsl(204, 93.8%, 100%)" stroke-width="1.5"></path><path d="M1005.35 512.3L1005.35 512.3" stroke="hsl(204, 93.8%, 100%)" stroke-width="1.5"></path><path d="M1005.35 512.3L1141.62 542.65" stroke="hsl(204, 93.8%, 100%)" stroke-width="1.5"></path><path d="M967.58 655.31L967.58 655.31" stroke="hsl(204, 93.8%, 100%)" stroke-width="1.5"></path><path d="M967.58 655.31L1005.35 512.3" stroke="hsl(204, 93.8%, 100%)" stroke-width="1.5"></path><path d="M967.58 655.31L1146.31 692.37" stroke="hsl(204, 93.8%, 100%)" stroke-width="1.5"></path><path d="M967.58 655.31L1141.62 542.65" stroke="hsl(204, 93.8%, 100%)" stroke-width="1.5"></path><path d="M967.58 655.31L821.63 503.68" stroke="hsl(204, 93.8%, 100%)" stroke-width="1.5"></path><path d="M1139 90.55L1139 90.55" stroke="hsl(204, 93.8%, 100%)" stroke-width="1.5"></path><path d="M1139 90.55L1290.51 47.72" stroke="hsl(204, 93.8%, 100%)" stroke-width="1.5"></path><path d="M1146.73 401.76L1146.73 401.76" stroke="hsl(204, 93.8%, 100%)" stroke-width="1.5"></path><path d="M1146.73 401.76L1141.62 542.65" stroke="hsl(204, 93.8%, 100%)" stroke-width="1.5"></path><path d="M1141.62 542.65L1141.62 542.65" stroke="hsl(204, 93.8%, 100%)" stroke-width="1.5"></path><path d="M1141.62 542.65L1256.12 555.22" stroke="hsl(204, 93.8%, 100%)" stroke-width="1.5"></path><path d="M1141.62 542.65L1146.31 692.37" stroke="hsl(204, 93.8%, 100%)" stroke-width="1.5"></path><path d="M1146.31 692.37L1146.31 692.37" stroke="hsl(204, 93.8%, 100%)" stroke-width="1.5"></path><path d="M1146.31 692.37L1307.13 648.91" stroke="hsl(204, 93.8%, 100%)" stroke-width="1.5"></path><path d="M1146.31 692.37L1256.12 555.22" stroke="hsl(204, 93.8%, 100%)" stroke-width="1.5"></path><path d="M1309.3 -73.65L1309.3 -73.65" stroke="hsl(204, 93.8%, 100%)" stroke-width="1.5"></path><path d="M1309.3 -73.65L1426.77 -85.81" stroke="hsl(204, 93.8%, 100%)" stroke-width="1.5"></path><path d="M1309.3 -73.65L1290.51 47.72" stroke="hsl(204, 93.8%, 100%)" stroke-width="1.5"></path><path d="M1309.3 -73.65L1139 90.55" stroke="hsl(204, 93.8%, 100%)" stroke-width="1.5"></path><path d="M1309.3 -73.65L1585.5 -61.68" stroke="hsl(204, 93.8%, 100%)" stroke-width="1.5"></path><path d="M1309.3 -73.65L1286.78 203.38" stroke="hsl(204, 93.8%, 100%)" stroke-width="1.5"></path><path d="M1309.3 -73.65L1557.33 97.8" stroke="hsl(204, 93.8%, 100%)" stroke-width="1.5"></path><path d="M1290.51 47.72L1290.51 47.72" stroke="hsl(204, 93.8%, 100%)" stroke-width="1.5"></path><path d="M1256.12 555.22L1256.12 555.22" stroke="hsl(204, 93.8%, 100%)" stroke-width="1.5"></path><path d="M1426.77 -85.81L1426.77 -85.81" stroke="hsl(204, 93.8%, 100%)" stroke-width="1.5"></path><path d="M1426.77 -85.81L1585.5 -61.68" stroke="hsl(204, 93.8%, 100%)" stroke-width="1.5"></path><path d="M1426.77 -85.81L1290.51 47.72" stroke="hsl(204, 93.8%, 100%)" stroke-width="1.5"></path><path d="M1426.77 -85.81L1557.33 97.8" stroke="hsl(204, 93.8%, 100%)" stroke-width="1.5"></path><path d="M1426.77 -85.81L1286.78 203.38" stroke="hsl(204, 93.8%, 100%)" stroke-width="1.5"></path><path d="M1456.34 260.87L1456.34 260.87" stroke="hsl(204, 93.8%, 100%)" stroke-width="1.5"></path><path d="M1456.34 260.87L1450.64 373.82" stroke="hsl(204, 93.8%, 100%)" stroke-width="1.5"></path><path d="M1456.34 260.87L1591.92 232.84" stroke="hsl(204, 93.8%, 100%)" stroke-width="1.5"></path><path d="M1456.34 260.87L1576.64 379.29" stroke="hsl(204, 93.8%, 100%)" stroke-width="1.5"></path><path d="M1456.34 260.87L1557.33 97.8" stroke="hsl(204, 93.8%, 100%)" stroke-width="1.5"></path><path d="M1450.64 373.82L1450.64 373.82" stroke="hsl(204, 93.8%, 100%)" stroke-width="1.5"></path><path d="M1450.64 373.82L1576.64 379.29" stroke="hsl(204, 93.8%, 100%)" stroke-width="1.5"></path><path d="M1450.64 373.82L1563.74 505.32" stroke="hsl(204, 93.8%, 100%)" stroke-width="1.5"></path><path d="M1389.67 554.63L1389.67 554.63" stroke="hsl(204, 93.8%, 100%)" stroke-width="1.5"></path><path d="M1389.67 554.63L1256.12 555.22" stroke="hsl(204, 93.8%, 100%)" stroke-width="1.5"></path><path d="M1389.67 554.63L1398.5 700.3" stroke="hsl(204, 93.8%, 100%)" stroke-width="1.5"></path><path d="M1398.5 700.3L1398.5 700.3" stroke="hsl(204, 93.8%, 100%)" stroke-width="1.5"></path><path d="M1398.5 700.3L1256.12 555.22" stroke="hsl(204, 93.8%, 100%)" stroke-width="1.5"></path><path d="M1398.5 700.3L1146.31 692.37" stroke="hsl(204, 93.8%, 100%)" stroke-width="1.5"></path><path d="M1398.5 700.3L1563.74 505.32" stroke="hsl(204, 93.8%, 100%)" stroke-width="1.5"></path><path d="M1398.5 700.3L1141.62 542.65" stroke="hsl(204, 93.8%, 100%)" stroke-width="1.5"></path><path d="M1585.5 -61.68L1585.5 -61.68" stroke="hsl(204, 93.8%, 100%)" stroke-width="1.5"></path><path d="M1585.5 -61.68L1557.33 97.8" stroke="hsl(204, 93.8%, 100%)" stroke-width="1.5"></path><path d="M1557.33 97.8L1557.33 97.8" stroke="hsl(204, 93.8%, 100%)" stroke-width="1.5"></path><path d="M1557.33 97.8L1591.92 232.84" stroke="hsl(204, 93.8%, 100%)" stroke-width="1.5"></path><path d="M1557.33 97.8L1290.51 47.72" stroke="hsl(204, 93.8%, 100%)" stroke-width="1.5"></path><path d="M1557.33 97.8L1576.64 379.29" stroke="hsl(204, 93.8%, 100%)" stroke-width="1.5"></path><path d="M1591.92 232.84L1591.92 232.84" stroke="hsl(204, 93.8%, 100%)" stroke-width="1.5"></path><path d="M1591.92 232.84L1576.64 379.29" stroke="hsl(204, 93.8%, 100%)" stroke-width="1.5"></path><path d="M1591.92 232.84L1450.64 373.82" stroke="hsl(204, 93.8%, 100%)" stroke-width="1.5"></path><path d="M1591.92 232.84L1563.74 505.32" stroke="hsl(204, 93.8%, 100%)" stroke-width="1.5"></path><path d="M1576.64 379.29L1576.64 379.29" stroke="hsl(204, 93.8%, 100%)" stroke-width="1.5"></path><path d="M1576.64 379.29L1563.74 505.32" stroke="hsl(204, 93.8%, 100%)" stroke-width="1.5"></path><path d="M1563.74 505.32L1563.74 505.32" stroke="hsl(204, 93.8%, 100%)" stroke-width="1.5"></path><path d="M1563.74 505.32L1389.67 554.63" stroke="hsl(204, 93.8%, 100%)" stroke-width="1.5"></path><path d="M1563.74 505.32L1456.34 260.87" stroke="hsl(204, 93.8%, 100%)" stroke-width="1.5"></path><circle r="25" cx="83.03" cy="647.89" fill="url(&quot;#SvgjsRadialGradient1085&quot;)"></circle><circle r="25" cx="222.29" cy="495.98" fill="url(&quot;#SvgjsRadialGradient1085&quot;)"></circle><circle r="25" cx="187.95" cy="684.63" fill="url(&quot;#SvgjsRadialGradient1085&quot;)"></circle><circle r="25" cx="368.04" cy="691.16" fill="url(&quot;#SvgjsRadialGradient1085&quot;)"></circle><circle r="25" cx="821.63" cy="503.68" fill="url(&quot;#SvgjsRadialGradient1085&quot;)"></circle><circle r="25" cx="1001.88" cy="377.2" fill="url(&quot;#SvgjsRadialGradient1085&quot;)"></circle><circle r="25" cx="1111.12" cy="236.73" fill="url(&quot;#SvgjsRadialGradient1085&quot;)"></circle><circle r="25" cx="1286.78" cy="203.38" fill="url(&quot;#SvgjsRadialGradient1085&quot;)"></circle><circle r="25" cx="1309.88" cy="394.64" fill="url(&quot;#SvgjsRadialGradient1085&quot;)"></circle><circle r="25" cx="1307.13" cy="648.91" fill="url(&quot;#SvgjsRadialGradient1085&quot;)"></circle><circle r="5" cx="-98.29" cy="499.62" fill="#f0f9ff"></circle><circle r="5" cx="-100.24" cy="645.93" fill="#f0f9ff"></circle><circle r="5" cx="41.88" cy="557.42" fill="#f0f9ff"></circle><circle r="5" cx="385.24" cy="505.59" fill="#f0f9ff"></circle><circle r="5" cx="538.21" cy="507.57" fill="#f0f9ff"></circle><circle r="5" cx="509.16" cy="693.84" fill="#f0f9ff"></circle><circle r="5" cx="710.55" cy="406.23" fill="#f0f9ff"></circle><circle r="5" cx="669.22" cy="556.08" fill="#f0f9ff"></circle><circle r="5" cx="659.17" cy="661.98" fill="#f0f9ff"></circle><circle r="5" cx="799.89" cy="361.94" fill="#f0f9ff"></circle><circle r="5" cx="833.92" cy="702.73" fill="#f0f9ff"></circle><circle r="5" cx="1005.35" cy="512.3" fill="#f0f9ff"></circle><circle r="5" cx="967.58" cy="655.31" fill="#f0f9ff"></circle><circle r="5" cx="1139" cy="90.55" fill="#f0f9ff"></circle><circle r="5" cx="1146.73" cy="401.76" fill="#f0f9ff"></circle><circle r="5" cx="1141.62" cy="542.65" fill="#f0f9ff"></circle><circle r="5" cx="1146.31" cy="692.37" fill="#f0f9ff"></circle><circle r="5" cx="1309.3" cy="-73.65" fill="#f0f9ff"></circle><circle r="5" cx="1290.51" cy="47.72" fill="#f0f9ff"></circle><circle r="5" cx="1256.12" cy="555.22" fill="#f0f9ff"></circle><circle r="5" cx="1426.77" cy="-85.81" fill="#f0f9ff"></circle><circle r="5" cx="1456.34" cy="260.87" fill="#f0f9ff"></circle><circle r="5" cx="1450.64" cy="373.82" fill="#f0f9ff"></circle><circle r="5" cx="1389.67" cy="554.63" fill="#f0f9ff"></circle><circle r="5" cx="1398.5" cy="700.3" fill="#f0f9ff"></circle><circle r="5" cx="1585.5" cy="-61.68" fill="#f0f9ff"></circle><circle r="5" cx="1557.33" cy="97.8" fill="#f0f9ff"></circle><circle r="5" cx="1591.92" cy="232.84" fill="#f0f9ff"></circle><circle r="5" cx="1576.64" cy="379.29" fill="#f0f9ff"></circle><circle r="5" cx="1563.74" cy="505.32" fill="#f0f9ff"></circle></g><defs><mask id="SvgjsMask1084"><rect width="1440" height="560" fill="#ffffff"></rect></mask><radialGradient id="SvgjsRadialGradient1085"><stop stop-color="#ffffff" offset="0.1"></stop><stop stop-color="rgba(224, 242, 254, 1)" offset="0.2"></stop><stop stop-color="rgba(224, 242, 254, 0)" offset="1"></stop></radialGradient></defs></svg>