<svg xmlns="http://www.w3.org/2000/svg" version="1.1" xmlns:xlink="http://www.w3.org/1999/xlink" xmlns:svgjs="http://svgjs.dev/svgjs" width="1440" height="250" preserveAspectRatio="none" viewBox="0 0 1440 250"><g mask="url(&quot;#SvgjsMask1021&quot;)" fill="none"><rect width="1440" height="250" x="0" y="0" fill="rgba(239, 247, 253, 1)"></rect><path d="M7 250L257 0L389 0L139 250z" fill="url(&quot;#SvgjsLinearGradient1022&quot;)"></path><path d="M275.6 250L525.6 0L878.1 0L628.1 250z" fill="url(&quot;#SvgjsLinearGradient1022&quot;)"></path><path d="M514.2 250L764.2 0L828.7 0L578.7 250z" fill="url(&quot;#SvgjsLinearGradient1022&quot;)"></path><path d="M745.8000000000001 250L995.8000000000001 0L1090.3000000000002 0L840.3000000000001 250z" fill="url(&quot;#SvgjsLinearGradient1022&quot;)"></path><path d="M1419 250L1169 0L966.5 0L1216.5 250z" fill="url(&quot;#SvgjsLinearGradient1023&quot;)"></path><path d="M1178.4 250L928.4000000000001 0L760.4000000000001 0L1010.4000000000001 250z" fill="url(&quot;#SvgjsLinearGradient1023&quot;)"></path><path d="M951.8 250L701.8 0L601.3 0L851.3 250z" fill="url(&quot;#SvgjsLinearGradient1023&quot;)"></path><path d="M707.1999999999999 250L457.19999999999993 0L389.69999999999993 0L639.6999999999999 250z" fill="url(&quot;#SvgjsLinearGradient1023&quot;)"></path><path d="M1277.9984903436716 250L1440 87.99849034367153L1440 250z" fill="url(&quot;#SvgjsLinearGradient1022&quot;)"></path><path d="M0 250L162.00150965632847 250L 0 87.99849034367153z" fill="url(&quot;#SvgjsLinearGradient1023&quot;)"></path></g><defs><mask id="SvgjsMask1021"><rect width="1440" height="250" fill="#ffffff"></rect></mask><linearGradient x1="0%" y1="100%" x2="100%" y2="0%" id="SvgjsLinearGradient1022"><stop stop-color="rgba(200, 222, 237, 0.86)" offset="0"></stop><stop stop-opacity="0" stop-color="rgba(200, 222, 237, 0.86)" offset="0.66"></stop></linearGradient><linearGradient x1="100%" y1="100%" x2="0%" y2="0%" id="SvgjsLinearGradient1023"><stop stop-color="rgba(200, 222, 237, 0.86)" offset="0"></stop><stop stop-opacity="0" stop-color="rgba(200, 222, 237, 0.86)" offset="0.66"></stop></linearGradient></defs></svg>